_Griffith_Gothic-Condensed_Thin_WebTT.ufo
<glyph name="numbersign" format="1">
  <advance width="962.56"/>
  <unicode hex="0023"/>
  <outline>
    <contour>
      <point x="918" y="1026" type="line"/>
      <point x="918" y="965" type="line"/>
      <point x="725" y="965" type="line"/>
      <point x="666" y="510" type="line"/>
      <point x="862" y="510" type="line"/>
      <point x="862" y="449" type="line"/>
      <point x="657" y="449" type="line"/>
      <point x="598" y="0" type="line"/>
      <point x="530" y="0" type="line"/>
      <point x="590" y="449" type="line"/>
      <point x="297" y="449" type="line"/>
      <point x="238" y="0" type="line"/>
      <point x="170" y="0" type="line"/>
      <point x="229" y="449" type="line"/>
      <point x="45" y="449" type="line"/>
      <point x="45" y="510" type="line"/>
      <point x="238" y="510" type="line"/>
      <point x="297" y="965" type="line"/>
      <point x="100" y="965" type="line"/>
      <point x="100" y="1026" type="line"/>
      <point x="305" y="1026" type="line"/>
      <point x="365" y="1475" type="line"/>
      <point x="432" y="1475" type="line"/>
      <point x="373" y="1026" type="line"/>
      <point x="666" y="1026" type="line"/>
      <point x="725" y="1475" type="line"/>
      <point x="793" y="1475" type="line"/>
      <point x="733" y="1026" type="line"/>
    </contour>
    <contour>
      <point x="598" y="510" type="line"/>
      <point x="657" y="965" type="line"/>
      <point x="365" y="965" type="line"/>
      <point x="305" y="510" type="line"/>
    </contour>
  </outline>
</glyph>
<glyph name="quotesingle" format="1">
  <advance width="286.72"/>
  <unicode hex="0027"/>
  <outline>
    <contour>
      <point x="100" y="1475" type="line"/>
      <point x="186" y="1475" type="line"/>
      <point x="160" y="1100" type="line"/>
      <point x="127" y="1100" type="line"/>
    </contour>
  </outline>
</glyph>
<glyph name="asterisk" format="1">
  <advance width="675.84"/>
  <unicode hex="002A"/>
  <outline>
    <contour>
      <point x="586" y="1327" type="line"/>
      <point x="608" y="1257" type="line"/>
      <point x="367" y="1200" type="line"/>
      <point x="535" y="1010" type="line"/>
      <point x="473" y="965" type="line"/>
      <point x="338" y="1184" type="line"/>
      <point x="203" y="965" type="line"/>
      <point x="141" y="1010" type="line"/>
      <point x="309" y="1200" type="line"/>
      <point x="68" y="1257" type="line"/>
      <point x="90" y="1327" type="line"/>
      <point x="322" y="1225" type="line"/>
      <point x="301" y="1475" type="line"/>
      <point x="375" y="1475" type="line"/>
      <point x="354" y="1225" type="line"/>
    </contour>
  </outline>
</glyph>
<glyph name="plus" format="1">
  <advance width="962.56"/>
  <unicode hex="002B"/>
  <outline>
    <contour>
      <point x="885" y="760" type="line"/>
      <point x="885" y="694" type="line"/>
      <point x="514" y="694" type="line"/>
      <point x="514" y="324" type="line"/>
      <point x="449" y="324" type="line"/>
      <point x="449" y="694" type="line"/>
      <point x="78" y="694" type="line"/>
      <point x="78" y="760" type="line"/>
      <point x="449" y="760" type="line"/>
      <point x="449" y="1130" type="line"/>
      <point x="514" y="1130" type="line"/>
      <point x="514" y="760" type="line"/>
    </contour>
  </outline>
</glyph>
<glyph name="comma" format="1">
  <advance width="286.72"/>
  <unicode hex="002C"/>
  <outline>
    <contour>
      <point x="119" y="154" type="line"/>
      <point x="205" y="154" type="line"/>
      <point x="86" y="-221" type="line"/>
      <point x="51" y="-221" type="line"/>
    </contour>
  </outline>
</glyph>
<glyph name="hyphen" format="1">
  <advance width="458.752"/>
  <unicode hex="002D"/>
  <unicode hex="2010"/>
  <unicode hex="2011"/>
  <outline>
    <contour>
      <point x="416" y="604" type="line"/>
      <point x="416" y="535" type="line"/>
      <point x="63" y="535" type="line"/>
      <point x="63" y="604" type="line"/>
    </contour>
  </outline>
</glyph>
<glyph name="slash" format="1">
  <advance width="579.584"/>
  <unicode hex="002F"/>
  <outline>
    <contour>
      <point x="483" y="1505" type="line"/>
      <point x="551" y="1505" type="line"/>
      <point x="51" y="-195" type="line"/>
      <point x="-16" y="-195" type="line"/>
    </contour>
  </outline>
</glyph>
<glyph name="zero" format="1">
  <advance width="954.368"/>
  <unicode hex="0030"/>
  <outline>
    <contour>
      <point x="862" y="823" type="qcurve" smooth="yes"/>
      <point x="862" y="655" type="line" smooth="yes"/>
      <point x="862.0" y="348.28358209"/>
      <point x="654.611940299" y="-25.0"/>
      <point x="477" y="-25" type="qcurve" smooth="yes"/>
      <point x="297.149253731" y="-25.0"/>
      <point x="92.0" y="344.28358209"/>
      <point x="92" y="651" type="qcurve" smooth="yes"/>
      <point x="92" y="819" type="line" smooth="yes"/>
      <point x="92.0" y="1126.46268657"/>
      <point x="297.149253731" y="1499.0"/>
      <point x="477" y="1499" type="qcurve" smooth="yes"/>
      <point x="654.611940299" y="1499.0"/>
      <point x="862.0" y="1127.47761194"/>
    </contour>
    <contour>
      <point x="477" y="37" type="qcurve" smooth="yes"/>
      <point x="627.0" y="37.0"/>
      <point x="784.0" y="394.76119403"/>
      <point x="784" y="647" type="qcurve" smooth="yes"/>
      <point x="784" y="823" type="line" smooth="yes"/>
      <point x="784.0" y="1073.74626866"/>
      <point x="627.0" y="1438.0"/>
      <point x="477" y="1438" type="qcurve" smooth="yes"/>
      <point x="327.0" y="1438.0"/>
      <point x="170.0" y="1077.74626866"/>
      <point x="170" y="827" type="qcurve" smooth="yes"/>
      <point x="170" y="651" type="line" smooth="yes"/>
      <point x="170.0" y="398.76119403"/>
      <point x="327.0" y="37.0"/>
    </contour>
  </outline>
</glyph>
<glyph name="five" format="1">
  <advance width="851.968"/>
  <unicode hex="0035"/>
  <outline>
    <contour>
      <point x="774" y="500" type="qcurve" smooth="yes"/>
      <point x="774" y="496" type="line" smooth="yes"/>
      <point x="774.0" y="240.776119403"/>
      <point x="520.656716418" y="-20.0"/>
      <point x="352" y="-20" type="qcurve" smooth="yes"/>
      <point x="265.432835821" y="-20.0"/>
      <point x="136.179104478" y="13.447761194"/>
      <point x="72" y="53" type="qcurve"/>
      <point x="102" y="115" type="line"/>
      <point x="167.671641791" y="71.7164179104"/>
      <point x="279.373134328" y="41.0"/>
      <point x="354" y="41" type="qcurve" smooth="yes"/>
      <point x="512.955223881" y="41.0"/>
      <point x="696.0" y="289.76119403"/>
      <point x="696" y="492" type="qcurve" smooth="yes"/>
      <point x="696" y="496" type="line" smooth="yes"/>
      <point x="696.0" y="668.388059701"/>
      <point x="575.149253731" y="860.0"/>
      <point x="455" y="860" type="qcurve" smooth="yes"/>
      <point x="381.119402985" y="860.0"/>
      <point x="276.76119403" y="787.208955224"/>
      <point x="229" y="729" type="qcurve"/>
      <point x="125" y="729" type="line"/>
      <point x="190" y="1475" type="line"/>
      <point x="713" y="1475" type="line"/>
      <point x="713" y="1413" type="line"/>
      <point x="250" y="1413" type="line"/>
      <point x="197" y="784" type="line"/>
      <point x="211" y="784" type="line"/>
      <point x="261.746268657" y="846.686567164"/>
      <point x="379.179104478" y="922.0"/>
      <point x="465" y="922" type="qcurve" smooth="yes"/>
      <point x="603.805970149" y="922.0"/>
      <point x="774.0" y="707.462686567"/>
    </contour>
  </outline>
</glyph>
<glyph name="eight" format="1">
  <advance width="933.888"/>
  <unicode hex="0038"/>
  <outline>
    <contour>
      <point x="606" y="782" type="line"/>
      <point x="706.746268657" y="746.925373134"/>
      <point x="848.0" y="543.47761194"/>
      <point x="848" y="389" type="qcurve" smooth="yes"/>
      <point x="848.0" y="190.492537313"/>
      <point x="614.014925373" y="-25.0"/>
      <point x="467" y="-25" type="qcurve" smooth="yes"/>
      <point x="318.492537313" y="-25.0"/>
      <point x="86.0" y="186.492537313"/>
      <point x="86" y="385" type="qcurve" smooth="yes"/>
      <point x="86.0" y="539.47761194"/>
      <point x="224.507462687" y="746.925373134"/>
      <point x="326" y="782" type="qcurve"/>
      <point x="326" y="797" type="line"/>
      <point x="238.686567164" y="833.567164179"/>
      <point x="117.0" y="1009.62686567"/>
      <point x="117" y="1135" type="qcurve" smooth="yes"/>
      <point x="117.0" y="1298.43283582"/>
      <point x="321.47761194" y="1499.0"/>
      <point x="467" y="1499" type="qcurve" smooth="yes"/>
      <point x="610.28358209" y="1499.0"/>
      <point x="815.0" y="1302.43283582"/>
      <point x="815" y="1139" type="qcurve" smooth="yes"/>
      <point x="815.0" y="1013.62686567"/>
      <point x="693.313432836" y="835.059701493"/>
      <point x="606" y="797" type="qcurve"/>
    </contour>
    <contour>
      <point x="467" y="37" type="qcurve" smooth="yes"/>
      <point x="595.358208955" y="37.0"/>
      <point x="770.0" y="221.089552239"/>
      <point x="770" y="389" type="qcurve" smooth="yes"/>
      <point x="770.0" y="559.895522388"/>
      <point x="590.880597015" y="762.0"/>
      <point x="467" y="762" type="qcurve" smooth="yes"/>
      <point x="341.626865672" y="762.0"/>
      <point x="164.0" y="564.641791045"/>
      <point x="164" y="393" type="qcurve" smooth="yes"/>
      <point x="164.0" y="225.089552239"/>
      <point x="338.641791045" y="37.0"/>
    </contour>
    <contour>
      <point x="467" y="811" type="qcurve" smooth="yes"/>
      <point x="578.194029851" y="811.0"/>
      <point x="737.0" y="982.71641791"/>
      <point x="737" y="1126" type="qcurve" smooth="yes"/>
      <point x="737.0" y="1262.56716418"/>
      <point x="590.880597015" y="1438.0"/>
      <point x="467" y="1438" type="qcurve" smooth="yes"/>
      <point x="341.626865672" y="1438.0"/>
      <point x="195.0" y="1266.56716418"/>
      <point x="195" y="1130" type="qcurve" smooth="yes"/>
      <point x="195.0" y="986.71641791"/>
      <point x="353.567164179" y="811.0"/>
    </contour>
  </outline>
</glyph>
<glyph name="colon" format="1">
  <advance width="327.68"/>
  <unicode hex="003A"/>
  <outline>
    <contour>
      <point x="164" y="117" type="qcurve" smooth="yes"/>
      <point x="193.104477612" y="117.0"/>
      <point x="229.0" y="80.1044776119"/>
      <point x="229" y="51" type="qcurve" smooth="yes"/>
      <point x="229.0" y="21.8955223881"/>
      <point x="193.104477612" y="-14.0"/>
      <point x="164" y="-14" type="qcurve" smooth="yes"/>
      <point x="134.895522388" y="-14.0"/>
      <point x="98.0" y="21.8955223881"/>
      <point x="98" y="51" type="qcurve" smooth="yes"/>
      <point x="98.0" y="80.1044776119"/>
      <point x="134.895522388" y="117.0"/>
    </contour>
    <contour>
      <point x="164" y="1057" type="qcurve" smooth="yes"/>
      <point x="193.104477612" y="1057.0"/>
      <point x="229.0" y="1020.10447761"/>
      <point x="229" y="991" type="qcurve" smooth="yes"/>
      <point x="229.0" y="961.895522388"/>
      <point x="193.104477612" y="926.0"/>
      <point x="164" y="926" type="qcurve" smooth="yes"/>
      <point x="134.895522388" y="926.0"/>
      <point x="98.0" y="961.895522388"/>
      <point x="98" y="991" type="qcurve" smooth="yes"/>
      <point x="98.0" y="1020.10447761"/>
      <point x="134.895522388" y="1057.0"/>
    </contour>
  </outline>
</glyph>
<glyph name="less" format="1">
  <advance width="962.56"/>
  <unicode hex="003C"/>
  <outline>
    <contour>
      <point x="866" y="401" type="line"/>
      <point x="866" y="334" type="line"/>
      <point x="82" y="696" type="line"/>
      <point x="82" y="760" type="line"/>
      <point x="866" y="1124" type="line"/>
      <point x="866" y="1057" type="line"/>
      <point x="152" y="729" type="line"/>
    </contour>
  </outline>
</glyph>
<glyph name="at" format="1">
  <advance width="1591.296"/>
  <unicode hex="0040"/>
  <outline>
    <contour>
      <point x="827" y="1499" type="qcurve" smooth="yes"/>
      <point x="1114.31343284" y="1499.0"/>
      <point x="1509.0" y="1050.65671642"/>
      <point x="1509" y="682" type="qcurve" smooth="yes"/>
      <point x="1509.0" y="416.328358209"/>
      <point x="1283.32835821" y="68.0"/>
      <point x="1149" y="68" type="qcurve" smooth="yes"/>
      <point x="1061.68656716" y="68.0"/>
      <point x="959.701492537" y="191.805970149"/>
      <point x="950" y="303" type="qcurve"/>
      <point x="942" y="303" type="line"/>
      <point x="877.820895522" y="183.597014925"/>
      <point x="746.626865672" y="68.0"/>
      <point x="672" y="68" type="qcurve" smooth="yes"/>
      <point x="580.208955224" y="68.0"/>
      <point x="469.0" y="240.044776119"/>
      <point x="469" y="399" type="qcurve" smooth="yes"/>
      <point x="469.0" y="657.208955224"/>
      <point x="675.686567164" y="1049.0"/>
      <point x="813" y="1049" type="qcurve" smooth="yes"/>
      <point x="898.820895522" y="1049.0"/>
      <point x="990.358208955" y="901.71641791"/>
      <point x="1012" y="795" type="qcurve"/>
      <point x="1020" y="793" type="line"/>
      <point x="1065" y="1044" type="line"/>
      <point x="1124" y="1006" type="line"/>
      <point x="1020" y="403" type="line" smooth="yes"/>
      <point x="999.850746269" y="291.805970149"/>
      <point x="1067.68656716" y="115.0"/>
      <point x="1155" y="115" type="qcurve" smooth="yes"/>
      <point x="1265.44776119" y="115.0"/>
      <point x="1450.0" y="437.701492537"/>
      <point x="1450" y="678" type="qcurve" smooth="yes"/>
      <point x="1450.0" y="1029.49253731"/>
      <point x="1098.37313433" y="1450.0"/>
      <point x="823" y="1450" type="qcurve" smooth="yes"/>
      <point x="535.686567164" y="1450.0"/>
      <point x="143.0" y="915.895522388"/>
      <point x="143" y="545" type="qcurve" smooth="yes"/>
      <point x="143.0" y="153.208955224"/>
      <point x="506.014925373" y="-344.0"/>
      <point x="809" y="-344" type="qcurve" smooth="yes"/>
      <point x="956.014925373" y="-344.0"/>
      <point x="1184.26865672" y="-255.850746269"/>
      <point x="1288" y="-176" type="qcurve"/>
      <point x="1317" y="-221" type="line"/>
      <point x="1205.05970149" y="-302.343283582"/>
      <point x="960.970149254" y="-393.0"/>
      <point x="805" y="-393" type="qcurve" smooth="yes"/>
      <point x="481.119402985" y="-393.0"/>
      <point x="82.0" y="122.850746269"/>
      <point x="82" y="543" type="qcurve" smooth="yes"/>
      <point x="82.0" y="945.985074627"/>
      <point x="523.268656716" y="1499.0"/>
    </contour>
    <contour>
      <point x="686" y="119" type="qcurve" smooth="yes"/>
      <point x="794.208955224" y="119.0"/>
      <point x="987.029850746" y="461.388059701"/>
      <point x="993" y="639" type="qcurve" smooth="yes"/>
      <point x="995.985074627" y="762.880597015"/>
      <point x="902.313432836" y="993.0"/>
      <point x="815" y="993" type="qcurve" smooth="yes"/>
      <point x="698.582089552" y="993.0"/>
      <point x="537.0" y="632.850746269"/>
      <point x="537" y="403" type="qcurve" smooth="yes"/>
      <point x="537.0" y="274.641791045"/>
      <point x="614.358208955" y="119.0"/>
    </contour>
  </outline>
</glyph>
<glyph name="D" format="1">
  <advance width="968.704"/>
  <unicode hex="0044"/>
  <outline>
    <contour>
      <point x="874" y="815" type="qcurve" smooth="yes"/>
      <point x="874" y="664" type="line" smooth="yes"/>
      <point x="874.0" y="353.552238806"/>
      <point x="611.029850746" y="0.0"/>
      <point x="367" y="0" type="qcurve" smooth="yes"/>
      <point x="147" y="0" type="line"/>
      <point x="147" y="1475" type="line"/>
      <point x="375" y="1475" type="line" smooth="yes"/>
      <point x="619.029850746" y="1475.0"/>
      <point x="874.0" y="1120.97014925"/>
    </contour>
    <contour>
      <point x="379" y="61" type="line" smooth="yes"/>
      <point x="576.014925373" y="61.0"/>
      <point x="797.0" y="377.895522388"/>
      <point x="797" y="657" type="qcurve" smooth="yes"/>
      <point x="797" y="813" type="line" smooth="yes"/>
      <point x="797.0" y="1095.8358209"/>
      <point x="576.970149254" y="1413.0"/>
      <point x="371" y="1413" type="qcurve" smooth="yes"/>
      <point x="225" y="1413" type="line"/>
      <point x="225" y="61" type="line"/>
    </contour>
  </outline>
</glyph>
<glyph name="E" format="1">
  <advance width="860.16"/>
  <unicode hex="0045"/>
  <outline>
    <contour>
      <point x="801" y="61" type="line"/>
      <point x="801" y="0" type="line"/>
      <point x="147" y="0" type="line"/>
      <point x="147" y="1475" type="line"/>
      <point x="780" y="1475" type="line"/>
      <point x="780" y="1413" type="line"/>
      <point x="225" y="1413" type="line"/>
      <point x="225" y="805" type="line"/>
      <point x="694" y="805" type="line"/>
      <point x="694" y="743" type="line"/>
      <point x="225" y="743" type="line"/>
      <point x="225" y="61" type="line"/>
    </contour>
  </outline>
</glyph>
<glyph name="H" format="1">
  <advance width="995.328"/>
  <unicode hex="0048"/>
  <outline>
    <contour>
      <point x="848" y="1475" type="line"/>
      <point x="848" y="0" type="line"/>
      <point x="770" y="0" type="line"/>
      <point x="770" y="743" type="line"/>
      <point x="225" y="743" type="line"/>
      <point x="225" y="0" type="line"/>
      <point x="147" y="0" type="line"/>
      <point x="147" y="1475" type="line"/>
      <point x="225" y="1475" type="line"/>
      <point x="225" y="805" type="line"/>
      <point x="770" y="805" type="line"/>
      <point x="770" y="1475" type="line"/>
    </contour>
  </outline>
</glyph>
<glyph name="J" format="1">
  <advance width="765.952"/>
  <unicode hex="004A"/>
  <outline>
    <contour>
      <point x="623" y="1475" type="line"/>
      <point x="623" y="356" type="line" smooth="yes"/>
      <point x="623.0" y="183.611940299"/>
      <point x="473.313432836" y="-25.0"/>
      <point x="336" y="-25" type="qcurve" smooth="yes"/>
      <point x="203.164179104" y="-25.0"/>
      <point x="47.9850746269" y="150.388059701"/>
      <point x="45" y="328" type="qcurve"/>
      <point x="115" y="362" type="line"/>
      <point x="119.47761194" y="185.134328358"/>
      <point x="242.23880597" y="41.0"/>
      <point x="340" y="41" type="qcurve" smooth="yes"/>
      <point x="433.28358209" y="41.0"/>
      <point x="545.0" y="194.537313433"/>
      <point x="545" y="352" type="qcurve" smooth="yes"/>
      <point x="545" y="1475" type="line"/>
    </contour>
  </outline>
</glyph>
<glyph name="L" format="1">
  <advance width="790.528"/>
  <unicode hex="004C"/>
  <outline>
    <contour>
      <point x="774" y="61" type="line"/>
      <point x="774" y="0" type="line"/>
      <point x="147" y="0" type="line"/>
      <point x="147" y="1475" type="line"/>
      <point x="225" y="1475" type="line"/>
      <point x="225" y="61" type="line"/>
    </contour>
  </outline>
</glyph>
<glyph name="M" format="1">
  <advance width="1304.576"/>
  <unicode hex="004D"/>
  <outline>
    <contour>
      <point x="1157" y="1475" type="line"/>
      <point x="1157" y="0" type="line"/>
      <point x="1081" y="0" type="line"/>
      <point x="1081" y="1393" type="line"/>
      <point x="1069" y="1393" type="line"/>
      <point x="702" y="0" type="line"/>
      <point x="602" y="0" type="line"/>
      <point x="229" y="1393" type="line"/>
      <point x="217" y="1393" type="line"/>
      <point x="217" y="0" type="line"/>
      <point x="147" y="0" type="line"/>
      <point x="147" y="1475" type="line"/>
      <point x="285" y="1475" type="line"/>
      <point x="649" y="90" type="line"/>
      <point x="662" y="90" type="line"/>
      <point x="1022" y="1475" type="line"/>
    </contour>
  </outline>
</glyph>
<glyph name="P" format="1">
  <advance width="901.12"/>
  <unicode hex="0050"/>
  <outline>
    <contour>
      <point x="410" y="1475" type="line" smooth="yes"/>
      <point x="610.0" y="1475.0"/>
      <point x="831.0" y="1260.01492537"/>
      <point x="831" y="1063" type="qcurve" smooth="yes"/>
      <point x="831.0" y="867.47761194"/>
      <point x="611.044776119" y="647.0"/>
      <point x="420" y="647" type="qcurve" smooth="yes"/>
      <point x="225" y="647" type="line"/>
      <point x="225" y="0" type="line"/>
      <point x="147" y="0" type="line"/>
      <point x="147" y="1475" type="line"/>
    </contour>
    <contour>
      <point x="428" y="709" type="line" smooth="yes"/>
      <point x="588.447761194" y="709.0"/>
      <point x="756.0" y="884.373134328"/>
      <point x="756" y="1059" type="qcurve" smooth="yes"/>
      <point x="756.0" y="1228.40298507"/>
      <point x="586.417910448" y="1413.0"/>
      <point x="420" y="1413" type="qcurve" smooth="yes"/>
      <point x="225" y="1413" type="line"/>
      <point x="225" y="709" type="line"/>
    </contour>
  </outline>
</glyph>
<glyph name="S" format="1">
  <advance width="890.88"/>
  <unicode hex="0053"/>
  <outline>
    <contour>
      <point x="473" y="807" type="qcurve" smooth="yes"/>
      <point x="659.567164179" y="725.656716418"/>
      <point x="807.0" y="522.686567164"/>
      <point x="807" y="360" type="qcurve" smooth="yes"/>
      <point x="807.0" y="172.686567164"/>
      <point x="597.328358209" y="-25.0"/>
      <point x="463" y="-25" type="qcurve" smooth="yes"/>
      <point x="302.552238806" y="-25.0"/>
      <point x="118.059701493" y="158.895522388"/>
      <point x="80" y="338" type="qcurve"/>
      <point x="145" y="367" type="line"/>
      <point x="182.313432836" y="198.343283582"/>
      <point x="339.119402985" y="37.0"/>
      <point x="463" y="37" type="qcurve" smooth="yes"/>
      <point x="574.194029851" y="37.0"/>
      <point x="729.0" y="206.23880597"/>
      <point x="729" y="354" type="qcurve" smooth="yes"/>
      <point x="729.0" y="486.835820896"/>
      <point x="608.179104478" y="661.358208955"/>
      <point x="444" y="733" type="qcurve" smooth="yes"/>
      <point x="270.119402985" y="809.865671642"/>
      <point x="117.0" y="1000.52238806"/>
      <point x="117" y="1155" type="qcurve" smooth="yes"/>
      <point x="117.0" y="1290.82089552"/>
      <point x="289.194029851" y="1499.0"/>
      <point x="428" y="1499" type="qcurve" smooth="yes"/>
      <point x="557.850746269" y="1499.0"/>
      <point x="730.955223881" y="1346.0"/>
      <point x="772" y="1196" type="qcurve"/>
      <point x="707" y="1167" type="line"/>
      <point x="668.194029851" y="1296.85074627"/>
      <point x="536.208955224" y="1438.0"/>
      <point x="428" y="1438" type="qcurve" smooth="yes"/>
      <point x="311.582089552" y="1438.0"/>
      <point x="195.0" y="1261.74626866"/>
      <point x="195" y="1161" type="qcurve" smooth="yes"/>
      <point x="195.0" y="1034.13432836"/>
      <point x="317.029850746" y="874.164179104"/>
    </contour>
  </outline>
</glyph>
<glyph name="T" format="1">
  <advance width="899.072"/>
  <unicode hex="0054"/>
  <outline>
    <contour>
      <point x="864" y="1475" type="line"/>
      <point x="864" y="1413" type="line"/>
      <point x="487" y="1413" type="line"/>
      <point x="487" y="0" type="line"/>
      <point x="412" y="0" type="line"/>
      <point x="412" y="1413" type="line"/>
      <point x="35" y="1413" type="line"/>
      <point x="35" y="1475" type="line"/>
    </contour>
  </outline>
</glyph>
<glyph name="V" format="1">
  <advance width="942.08"/>
  <unicode hex="0056"/>
  <outline>
    <contour>
      <point x="838" y="1475" type="line"/>
      <point x="911" y="1475" type="line"/>
      <point x="528" y="-16" type="line"/>
      <point x="430" y="-16" type="line"/>
      <point x="51" y="1475" type="line"/>
      <point x="129" y="1475" type="line"/>
      <point x="477" y="70" type="line"/>
      <point x="487" y="70" type="line"/>
    </contour>
  </outline>
</glyph>
<glyph name="X" format="1">
  <advance width="995.328"/>
  <unicode hex="0058"/>
  <outline>
    <contour>
      <point x="541" y="762" type="line"/>
      <point x="940" y="0" type="line"/>
      <point x="854" y="0" type="line"/>
      <point x="498" y="698" type="line"/>
      <point x="137" y="0" type="line"/>
      <point x="55" y="0" type="line"/>
      <point x="455" y="760" type="line"/>
      <point x="80" y="1475" type="line"/>
      <point x="166" y="1475" type="line"/>
      <point x="498" y="823" type="line"/>
      <point x="834" y="1475" type="line"/>
      <point x="915" y="1475" type="line"/>
    </contour>
  </outline>
</glyph>
<glyph name="Z" format="1">
  <advance width="868.352"/>
  <unicode hex="005A"/>
  <outline>
    <contour>
      <point x="807" y="61" type="line"/>
      <point x="807" y="0" type="line"/>
      <point x="61" y="0" type="line"/>
      <point x="61" y="51" type="line"/>
      <point x="723" y="1413" type="line"/>
      <point x="92" y="1413" type="line"/>
      <point x="92" y="1475" type="line"/>
      <point x="807" y="1475" type="line"/>
      <point x="807" y="1423" type="line"/>
      <point x="145" y="61" type="line"/>
    </contour>
  </outline>
</glyph>
<glyph name="bracketleft" format="1">
  <advance width="532.48"/>
  <unicode hex="005B"/>
  <outline>
    <contour>
      <point x="492" y="-106" type="line"/>
      <point x="492" y="-164" type="line"/>
      <point x="137" y="-178" type="line"/>
      <point x="137" y="1489" type="line"/>
      <point x="492" y="1475" type="line"/>
      <point x="492" y="1417" type="line"/>
      <point x="209" y="1432" type="line"/>
      <point x="209" y="-121" type="line"/>
    </contour>
  </outline>
</glyph>
<glyph name="bracketright" format="1">
  <advance width="532.48"/>
  <unicode hex="005D"/>
  <outline>
    <contour>
      <point x="395" y="1489" type="line"/>
      <point x="395" y="-178" type="line"/>
      <point x="41" y="-164" type="line"/>
      <point x="41" y="-106" type="line"/>
      <point x="324" y="-121" type="line"/>
      <point x="324" y="1432" type="line"/>
      <point x="41" y="1417" type="line"/>
      <point x="41" y="1475" type="line"/>
    </contour>
  </outline>
</glyph>
<glyph name="asciicircum" format="1">
  <advance width="798.72"/>
  <unicode hex="005E"/>
  <outline>
    <contour>
      <point x="440" y="1485" type="line"/>
      <point x="709" y="973" type="line"/>
      <point x="657" y="973" type="line"/>
      <point x="399" y="1403" type="line"/>
      <point x="141" y="973" type="line"/>
      <point x="90" y="973" type="line"/>
      <point x="358" y="1485" type="line"/>
    </contour>
  </outline>
</glyph>
<glyph name="f" format="1">
  <advance width="483.328"/>
  <unicode hex="0066"/>
  <outline>
    <contour>
      <point x="516" y="1530" type="qcurve"/>
      <point x="516" y="1456" type="line"/>
      <point x="488.388059701" y="1474.65671642"/>
      <point x="432.552238806" y="1495.0"/>
      <point x="393" y="1495" type="qcurve" smooth="yes"/>
      <point x="340.014925373" y="1495.0"/>
      <point x="270.0" y="1416.82089552"/>
      <point x="270" y="1331" type="qcurve" smooth="yes"/>
      <point x="270" y="1038" type="line"/>
      <point x="471" y="1038" type="line"/>
      <point x="471" y="981" type="line"/>
      <point x="270" y="981" type="line"/>
      <point x="270" y="0" type="line"/>
      <point x="199" y="0" type="line"/>
      <point x="199" y="981" type="line"/>
      <point x="27" y="981" type="line"/>
      <point x="27" y="1038" type="line"/>
      <point x="199" y="1038" type="line"/>
      <point x="199" y="1329" type="line" smooth="yes"/>
      <point x="199.0" y="1443.92537313"/>
      <point x="306.402985075" y="1554.0"/>
      <point x="387" y="1554" type="qcurve" smooth="yes"/>
      <point x="434.76119403" y="1554.0"/>
      <point x="489.880597015" y="1541.94029851"/>
    </contour>
  </outline>
</glyph>
<glyph name="g" format="1">
  <advance width="806.912"/>
  <unicode hex="0067"/>
  <outline>
    <contour>
      <point x="684" y="1026" type="line"/>
      <point x="684" y="-6" type="line" smooth="yes"/>
      <point x="684.0" y="-214.208955224"/>
      <point x="509.358208955" y="-389.0"/>
      <point x="381" y="-389" type="qcurve" smooth="yes"/>
      <point x="293.686567164" y="-389.0"/>
      <point x="188.791044776" y="-358.656716418"/>
      <point x="147" y="-340" type="qcurve"/>
      <point x="147" y="-250" type="line"/>
      <point x="182" y="-250" type="line"/>
      <point x="205.134328358" y="-291.044776119"/>
      <point x="301.686567164" y="-334.0"/>
      <point x="389" y="-334" type="qcurve" smooth="yes"/>
      <point x="483.776119403" y="-334.0"/>
      <point x="612.0" y="-196.910447761"/>
      <point x="612" y="-29" type="qcurve" smooth="yes"/>
      <point x="612" y="205" type="line"/>
      <point x="602" y="205" type="line"/>
      <point x="556.47761194" y="113.208955224"/>
      <point x="434.328358209" y="-20.0"/>
      <point x="350" y="-20" type="qcurve" smooth="yes"/>
      <point x="237.313432836" y="-20.0"/>
      <point x="76.0" y="250.23880597"/>
      <point x="76" y="498" type="qcurve" smooth="yes"/>
      <point x="76" y="549" type="line" smooth="yes"/>
      <point x="76.0" y="793.776119403"/>
      <point x="246.298507463" y="1069.0"/>
      <point x="356" y="1069" type="qcurve" smooth="yes"/>
      <point x="434.358208955" y="1069.0"/>
      <point x="559.462686567" y="939.313432836"/>
      <point x="602" y="852" type="qcurve"/>
      <point x="612" y="852" type="line"/>
      <point x="612" y="1067" type="line"/>
    </contour>
    <contour>
      <point x="367" y="43" type="qcurve" smooth="yes"/>
      <point x="467.746268657" y="43.0"/>
      <point x="623.0" y="341.164179104"/>
      <point x="623" y="524" type="qcurve" smooth="yes"/>
      <point x="623.0" y="706.089552239"/>
      <point x="467.462686567" y="1006.0"/>
      <point x="360" y="1006" type="qcurve" smooth="yes"/>
      <point x="270.447761194" y="1006.0"/>
      <point x="147.0" y="758.835820896"/>
      <point x="147" y="526" type="qcurve" smooth="yes"/>
      <point x="147.0" y="280.47761194"/>
      <point x="275.208955224" y="43.0"/>
    </contour>
  </outline>
</glyph>
<glyph name="h" format="1">
  <advance width="770.048"/>
  <unicode hex="0068"/>
  <outline>
    <contour>
      <point x="653" y="854" type="qcurve" smooth="yes"/>
      <point x="653" y="0" type="line"/>
      <point x="582" y="0" type="line"/>
      <point x="582" y="844" type="line" smooth="yes"/>
      <point x="582.0" y="923.104477612"/>
      <point x="523.71641791" y="997.0"/>
      <point x="467" y="997" type="qcurve" smooth="yes"/>
      <point x="404.313432836" y="997.0"/>
      <point x="262.164179104" y="870.373134328"/>
      <point x="195" y="745" type="qcurve"/>
      <point x="195" y="0" type="line"/>
      <point x="123" y="0" type="line"/>
      <point x="123" y="1520" type="line"/>
      <point x="195" y="1561" type="line"/>
      <point x="195" y="838" type="line"/>
      <point x="203" y="838" type="line"/>
      <point x="265.686567164" y="934.268656716"/>
      <point x="399.925373134" y="1059.0"/>
      <point x="485" y="1059" type="qcurve" smooth="yes"/>
      <point x="570.820895522" y="1059.0"/>
      <point x="653.0" y="942.805970149"/>
    </contour>
  </outline>
</glyph>
<glyph name="l" format="1">
  <advance width="346.112"/>
  <unicode hex="006C"/>
  <outline>
    <contour>
      <point x="209" y="1561" type="line"/>
      <point x="209" y="0" type="line"/>
      <point x="137" y="0" type="line"/>
      <point x="137" y="1520" type="line"/>
    </contour>
  </outline>
</glyph>
<glyph name="m" format="1">
  <advance width="1200.128"/>
  <unicode hex="006D"/>
  <outline>
    <contour>
      <point x="1083" y="854" type="qcurve" smooth="yes"/>
      <point x="1083" y="0" type="line"/>
      <point x="1012" y="0" type="line"/>
      <point x="1012" y="844" type="line" smooth="yes"/>
      <point x="1012.0" y="918.626865672"/>
      <point x="960.223880597" y="997.0"/>
      <point x="905" y="997" type="qcurve" smooth="yes"/>
      <point x="842.313432836" y="997.0"/>
      <point x="703.179104478" y="870.850746269"/>
      <point x="639" y="741" type="qcurve"/>
      <point x="639" y="0" type="line"/>
      <point x="567" y="0" type="line"/>
      <point x="567" y="844" type="line" smooth="yes"/>
      <point x="567.0" y="918.626865672"/>
      <point x="516.223880597" y="997.0"/>
      <point x="461" y="997" type="qcurve" smooth="yes"/>
      <point x="398.313432836" y="997.0"/>
      <point x="259.179104478" y="870.850746269"/>
      <point x="195" y="741" type="qcurve"/>
      <point x="195" y="0" type="line"/>
      <point x="123" y="0" type="line"/>
      <point x="123" y="1026" type="line"/>
      <point x="195" y="1067" type="line"/>
      <point x="195" y="838" type="line"/>
      <point x="201" y="838" type="line"/>
      <point x="262.194029851" y="935.76119403"/>
      <point x="391.179104478" y="1059.0"/>
      <point x="477" y="1059" type="qcurve" smooth="yes"/>
      <point x="562.820895522" y="1059.0"/>
      <point x="639.0" y="939.820895522"/>
      <point x="639" y="854" type="qcurve" smooth="yes"/>
      <point x="639" y="838" type="line"/>
      <point x="645" y="838" type="line"/>
      <point x="706.194029851" y="935.76119403"/>
      <point x="836.179104478" y="1059.0"/>
      <point x="922" y="1059" type="qcurve" smooth="yes"/>
      <point x="1007.07462687" y="1059.0"/>
      <point x="1083.0" y="939.820895522"/>
    </contour>
  </outline>
</glyph>
<glyph name="o" format="1">
  <advance width="770.048"/>
  <unicode hex="006F"/>
  <outline>
    <contour>
      <point x="694" y="561" type="qcurve" smooth="yes"/>
      <point x="694" y="487" type="line" smooth="yes"/>
      <point x="694.0" y="270.582089552"/>
      <point x="524.791044776" y="-20.0"/>
      <point x="383" y="-20" type="qcurve" smooth="yes"/>
      <point x="241.208955224" y="-20.0"/>
      <point x="76.0" y="270.582089552"/>
      <point x="76" y="487" type="qcurve" smooth="yes"/>
      <point x="76" y="561" type="line" smooth="yes"/>
      <point x="76.0" y="778.164179104"/>
      <point x="245.208955224" y="1069.0"/>
      <point x="387" y="1069" type="qcurve" smooth="yes"/>
      <point x="529.537313433" y="1069.0"/>
      <point x="694.0" y="778.164179104"/>
    </contour>
    <contour>
      <point x="387" y="35" type="qcurve" smooth="yes"/>
      <point x="493.71641791" y="35.0"/>
      <point x="623.0" y="298.671641791"/>
      <point x="623" y="483" type="qcurve" smooth="yes"/>
      <point x="623" y="565" type="line" smooth="yes"/>
      <point x="623.0" y="750.074626866"/>
      <point x="489.71641791" y="1014.0"/>
      <point x="383" y="1014" type="qcurve" smooth="yes"/>
      <point x="276.28358209" y="1014.0"/>
      <point x="147.0" y="750.074626866"/>
      <point x="147" y="565" type="qcurve" smooth="yes"/>
      <point x="147" y="483" type="line" smooth="yes"/>
      <point x="147.0" y="298.671641791"/>
      <point x="280.28358209" y="35.0"/>
    </contour>
  </outline>
</glyph>
<glyph name="r" format="1">
  <advance width="565.248"/>
  <unicode hex="0072"/>
  <outline>
    <contour>
      <point x="541" y="1067" type="qcurve"/>
      <point x="541" y="979" type="line"/>
      <point x="435.029850746" y="948.402985075"/>
      <point x="260.671641791" y="731.28358209"/>
      <point x="195" y="588" type="qcurve"/>
      <point x="195" y="0" type="line"/>
      <point x="123" y="0" type="line"/>
      <point x="123" y="1026" type="line"/>
      <point x="195" y="1067" type="line"/>
      <point x="195" y="694" type="line"/>
      <point x="205" y="694" type="line"/>
      <point x="285.597014925" y="848.47761194"/>
      <point x="450.701492537" y="1045.35820896"/>
    </contour>
  </outline>
</glyph>
<glyph name="s" format="1">
  <advance width="634.88"/>
  <unicode hex="0073"/>
  <outline>
    <contour>
      <point x="336" y="580" type="qcurve" smooth="yes"/>
      <point x="459.880597015" y="507.611940299"/>
      <point x="567.0" y="362.686567164"/>
      <point x="567" y="250" type="qcurve" smooth="yes"/>
      <point x="567.0" y="124.626865672"/>
      <point x="417.507462687" y="-16.0"/>
      <point x="319" y="-16" type="qcurve" smooth="yes"/>
      <point x="226.462686567" y="-16.0"/>
      <point x="97.2686567164" y="79.1044776119"/>
      <point x="51" y="150" type="qcurve"/>
      <point x="100" y="193" type="line"/>
      <point x="146.268656716" y="120.611940299"/>
      <point x="255.582089552" y="39.0"/>
      <point x="322" y="39" type="qcurve" smooth="yes"/>
      <point x="399.611940299" y="39.0"/>
      <point x="498.0" y="155.194029851"/>
      <point x="498" y="244" type="qcurve" smooth="yes"/>
      <point x="498.0" y="335.791044776"/>
      <point x="416.940298507" y="448.328358209"/>
      <point x="305" y="514" type="qcurve" smooth="yes"/>
      <point x="192.313432836" y="579.671641791"/>
      <point x="80.0" y="715.268656716"/>
      <point x="80" y="819" type="qcurve" smooth="yes"/>
      <point x="80.0" y="926.462686567"/>
      <point x="212.76119403" y="1065.0"/>
      <point x="315" y="1065" type="qcurve" smooth="yes"/>
      <point x="388.880597015" y="1065.0"/>
      <point x="500.731343284" y="993.194029851"/>
      <point x="547" y="932" type="qcurve"/>
      <point x="500" y="885" type="line"/>
      <point x="456.71641791" y="947.686567164"/>
      <point x="366.731343284" y="1010.0"/>
      <point x="313" y="1010" type="qcurve" smooth="yes"/>
      <point x="235.388059701" y="1010.0"/>
      <point x="152.0" y="903.358208955"/>
      <point x="152" y="825" type="qcurve" smooth="yes"/>
      <point x="152.0" y="742.910447761"/>
      <point x="239.731343284" y="634.47761194"/>
    </contour>
  </outline>
</glyph>
<glyph name="t" format="1">
  <advance width="534.528"/>
  <unicode hex="0074"/>
  <outline>
    <contour>
      <point x="502" y="113" type="qcurve"/>
      <point x="502" y="47" type="line"/>
      <point x="457.223880597" y="16.4029850746"/>
      <point x="382.537313433" y="-14.0"/>
      <point x="340" y="-14" type="qcurve" smooth="yes"/>
      <point x="275.820895522" y="-14.0"/>
      <point x="184.0" y="67.7313432836"/>
      <point x="184" y="164" type="qcurve" smooth="yes"/>
      <point x="184" y="981" type="line"/>
      <point x="31" y="981" type="line"/>
      <point x="31" y="1038" type="line"/>
      <point x="184" y="1038" type="line"/>
      <point x="184" y="1399" type="line"/>
      <point x="256" y="1499" type="line"/>
      <point x="256" y="1038" type="line"/>
      <point x="461" y="1038" type="line"/>
      <point x="461" y="981" type="line"/>
      <point x="256" y="981" type="line"/>
      <point x="256" y="172" type="line" smooth="yes"/>
      <point x="256.0" y="106.328358209"/>
      <point x="308.985074627" y="47.0"/>
      <point x="356" y="47" type="qcurve" smooth="yes"/>
      <point x="388.089552239" y="47.0"/>
      <point x="455.731343284" y="77.9253731343"/>
    </contour>
  </outline>
</glyph>
<glyph name="u" format="1">
  <advance width="770.048"/>
  <unicode hex="0075"/>
  <outline>
    <contour>
      <point x="647" y="1049" type="line"/>
      <point x="647" y="23" type="line"/>
      <point x="575" y="-18" type="line"/>
      <point x="575" y="211" type="line"/>
      <point x="567" y="211" type="line"/>
      <point x="504.313432836" y="114.731343284"/>
      <point x="370.074626866" y="-10.0"/>
      <point x="285" y="-10" type="qcurve" smooth="yes"/>
      <point x="199.179104478" y="-10.0"/>
      <point x="117.0" y="106.194029851"/>
      <point x="117" y="195" type="qcurve" smooth="yes"/>
      <point x="117" y="1049" type="line"/>
      <point x="188" y="1049" type="line"/>
      <point x="188" y="205" type="line" smooth="yes"/>
      <point x="188.0" y="125.149253731"/>
      <point x="246.28358209" y="51.0"/>
      <point x="303" y="51" type="qcurve" smooth="yes"/>
      <point x="365.686567164" y="51.0"/>
      <point x="507.835820896" y="177.626865672"/>
      <point x="575" y="303" type="qcurve"/>
      <point x="575" y="1049" type="line"/>
    </contour>
  </outline>
</glyph>
<glyph name="v" format="1">
  <advance width="700.416"/>
  <unicode hex="0076"/>
  <outline>
    <contour>
      <point x="586" y="1049" type="line"/>
      <point x="653" y="1049" type="line"/>
      <point x="389" y="-12" type="line"/>
      <point x="311" y="-12" type="line"/>
      <point x="47" y="1049" type="line"/>
      <point x="119" y="1049" type="line"/>
      <point x="352" y="76" type="line"/>
    </contour>
  </outline>
</glyph>
<glyph name="w" format="1">
  <advance width="1179.648"/>
  <unicode hex="0077"/>
  <outline>
    <contour>
      <point x="1061" y="1049" type="line"/>
      <point x="1128" y="1049" type="line"/>
      <point x="866" y="-8" type="line"/>
      <point x="799" y="-8" type="line"/>
      <point x="590" y="930" type="line"/>
      <point x="381" y="-8" type="line"/>
      <point x="313" y="-8" type="line"/>
      <point x="51" y="1049" type="line"/>
      <point x="123" y="1049" type="line"/>
      <point x="350" y="90" type="line"/>
      <point x="557" y="1049" type="line"/>
      <point x="627" y="1049" type="line"/>
      <point x="836" y="90" type="line"/>
    </contour>
  </outline>
</glyph>
<glyph name="z" format="1">
  <advance width="651.264"/>
  <unicode hex="007A"/>
  <outline>
    <contour>
      <point x="596" y="59" type="line"/>
      <point x="596" y="0" type="line"/>
      <point x="51" y="0" type="line"/>
      <point x="51" y="49" type="line"/>
      <point x="520" y="979" type="line"/>
      <point x="76" y="979" type="line"/>
      <point x="76" y="1038" type="line"/>
      <point x="596" y="1038" type="line"/>
      <point x="596" y="989" type="line"/>
      <point x="127" y="59" type="line"/>
    </contour>
  </outline>
</glyph>
<glyph name="asciitilde" format="1">
  <advance width="602.112"/>
  <unicode hex="007E"/>
  <outline>
    <contour>
      <point x="492" y="645" type="qcurve"/>
      <point x="539" y="645" type="line"/>
      <point x="539.0" y="567.388059701"/>
      <point x="477.701492537" y="492.0"/>
      <point x="418" y="492" type="qcurve" smooth="yes"/>
      <point x="353.820895522" y="492.0"/>
      <point x="227.253731343" y="580.0"/>
      <point x="178" y="580" type="qcurve" smooth="yes"/>
      <point x="142.925373134" y="580.0"/>
      <point x="111.0" y="537.044776119"/>
      <point x="111" y="496" type="qcurve"/>
      <point x="63" y="496" type="line"/>
      <point x="63.0" y="573.611940299"/>
      <point x="124.298507463" y="649.0"/>
      <point x="184" y="649" type="qcurve" smooth="yes"/>
      <point x="248.179104478" y="649.0"/>
      <point x="374.746268657" y="561.0"/>
      <point x="424" y="561" type="qcurve" smooth="yes"/>
      <point x="459.074626866" y="561.0"/>
      <point x="492.0" y="603.955223881"/>
    </contour>
  </outline>
</glyph>
<glyph name="exclamdown" format="1">
  <advance width="389.12"/>
  <unicode hex="00A1"/>
  <outline>
    <contour>
      <point x="195" y="1489" type="qcurve" smooth="yes"/>
      <point x="223.358208955" y="1489.0"/>
      <point x="260.0" y="1452.10447761"/>
      <point x="260" y="1423" type="qcurve" smooth="yes"/>
      <point x="260.0" y="1393.89552239"/>
      <point x="223.358208955" y="1358.0"/>
      <point x="195" y="1358" type="qcurve" smooth="yes"/>
      <point x="165.895522388" y="1358.0"/>
      <point x="129.0" y="1393.89552239"/>
      <point x="129" y="1423" type="qcurve" smooth="yes"/>
      <point x="129.0" y="1452.10447761"/>
      <point x="165.895522388" y="1489.0"/>
    </contour>
    <contour>
      <point x="213" y="1110" type="line"/>
      <point x="240" y="0" type="line"/>
      <point x="150" y="0" type="line"/>
      <point x="176" y="1110" type="line"/>
    </contour>
  </outline>
</glyph>
<glyph name="sterling" format="1">
  <advance width="890.88"/>
  <unicode hex="00A3"/>
  <outline>
    <contour>
      <point x="782" y="358" type="qcurve"/>
      <point x="844" y="334" type="line"/>
      <point x="820.865671642" y="153.402985075"/>
      <point x="699.194029851" y="-12.0"/>
      <point x="588" y="-12" type="qcurve" smooth="yes"/>
      <point x="512.626865672" y="-12.0"/>
      <point x="368.134328358" y="65.8358208955"/>
      <point x="295" y="133" type="qcurve"/>
      <point x="256.940298507" y="83.0"/>
      <point x="153.701492537" y="11.8805970149"/>
      <point x="94" y="-12" type="qcurve"/>
      <point x="94" y="59" type="line"/>
      <point x="179.820895522" y="96.3134328358"/>
      <point x="301.0" y="259.044776119"/>
      <point x="301" y="418" type="qcurve" smooth="yes"/>
      <point x="301.0" y="495.611940299"/>
      <point x="280.179104478" y="637.820895522"/>
      <point x="266" y="702" type="qcurve"/>
      <point x="76" y="702" type="line"/>
      <point x="76" y="762" type="line"/>
      <point x="252" y="762" type="line"/>
      <point x="225.880597015" y="859.76119403"/>
      <point x="180.0" y="1045.23880597"/>
      <point x="180" y="1143" type="qcurve" smooth="yes"/>
      <point x="180.0" y="1304.94029851"/>
      <point x="349.686567164" y="1499.0"/>
      <point x="487" y="1499" type="qcurve" smooth="yes"/>
      <point x="604.910447761" y="1499.0"/>
      <point x="747.23880597" y="1376.7761194"/>
      <point x="795" y="1282" type="qcurve"/>
      <point x="733" y="1241" type="line"/>
      <point x="688.970149254" y="1325.32835821"/>
      <point x="579.268656716" y="1438.0"/>
      <point x="483" y="1438" type="qcurve" smooth="yes"/>
      <point x="377.776119403" y="1438.0"/>
      <point x="256.0" y="1276.85074627"/>
      <point x="256" y="1147" type="qcurve" smooth="yes"/>
      <point x="256.0" y="1053.71641791"/>
      <point x="305.373134328" y="865.731343284"/>
      <point x="330" y="762" type="qcurve"/>
      <point x="639" y="762" type="line"/>
      <point x="639" y="702" type="line"/>
      <point x="344" y="702" type="line"/>
      <point x="357.432835821" y="637.820895522"/>
      <point x="377.0" y="498.119402985"/>
      <point x="377" y="422" type="qcurve" smooth="yes"/>
      <point x="377.0" y="353.343283582"/>
      <point x="352.388059701" y="238.52238806"/>
      <point x="330" y="193" type="qcurve"/>
      <point x="401.641791045" y="120.611940299"/>
      <point x="535.791044776" y="51.0"/>
      <point x="594" y="51" type="qcurve" smooth="yes"/>
      <point x="670.119402985" y="51.0"/>
      <point x="758.119402985" y="187.104477612"/>
    </contour>
  </outline>
</glyph>
<glyph name="yen" format="1">
  <advance width="962.56"/>
  <unicode hex="00A5"/>
  <outline>
    <contour>
      <point x="838" y="1475" type="line"/>
      <point x="920" y="1475" type="line"/>
      <point x="604" y="762" type="line"/>
      <point x="842" y="762" type="line"/>
      <point x="842" y="702" type="line"/>
      <point x="578" y="702" type="line"/>
      <point x="518" y="565" type="line"/>
      <point x="518" y="391" type="line"/>
      <point x="842" y="391" type="line"/>
      <point x="842" y="332" type="line"/>
      <point x="518" y="332" type="line"/>
      <point x="518" y="0" type="line"/>
      <point x="444" y="0" type="line"/>
      <point x="444" y="332" type="line"/>
      <point x="121" y="332" type="line"/>
      <point x="121" y="391" type="line"/>
      <point x="444" y="391" type="line"/>
      <point x="444" y="565" type="line"/>
      <point x="383" y="702" type="line"/>
      <point x="121" y="702" type="line"/>
      <point x="121" y="762" type="line"/>
      <point x="358" y="762" type="line"/>
      <point x="43" y="1475" type="line"/>
      <point x="127" y="1475" type="line"/>
      <point x="483" y="635" type="line"/>
    </contour>
  </outline>
</glyph>
<glyph name="dieresis" format="1">
  <advance width="798.72"/>
  <unicode hex="00A8"/>
  <outline>
    <contour>
      <point x="315" y="1311" type="line"/>
      <point x="315" y="1182" type="line"/>
      <point x="215" y="1182" type="line"/>
      <point x="215" y="1311" type="line"/>
    </contour>
    <contour>
      <point x="584" y="1311" type="line"/>
      <point x="584" y="1182" type="line"/>
      <point x="483" y="1182" type="line"/>
      <point x="483" y="1311" type="line"/>
    </contour>
  </outline>
</glyph>
<glyph name="copyright" format="1">
  <advance width="1349.632"/>
  <unicode hex="00A9"/>
  <outline>
    <contour>
      <point x="825" y="606" type="qcurve"/>
      <point x="891" y="586" type="line"/>
      <point x="864.880597015" y="466.597014925"/>
      <point x="763.28358209" y="328.0"/>
      <point x="670" y="328" type="qcurve" smooth="yes"/>
      <point x="564.029850746" y="328.0"/>
      <point x="442.0" y="534.850746269"/>
      <point x="442" y="705" type="qcurve" smooth="yes"/>
      <point x="442" y="786" type="line" smooth="yes"/>
      <point x="442.0" y="957.641791045"/>
      <point x="565.52238806" y="1165.0"/>
      <point x="670" y="1165" type="qcurve" smooth="yes"/>
      <point x="756.567164179" y="1165.0"/>
      <point x="858.880597015" y="1043.19402985"/>
      <point x="885" y="932" type="qcurve"/>
      <point x="819" y="909" type="line"/>
      <point x="798.104477612" y="1003.7761194"/>
      <point x="731.194029851" y="1106.0"/>
      <point x="670" y="1106" type="qcurve" smooth="yes"/>
      <point x="590.149253731" y="1106.0"/>
      <point x="514.0" y="921.582089552"/>
      <point x="514" y="788" type="qcurve" smooth="yes"/>
      <point x="514" y="709" type="line" smooth="yes"/>
      <point x="514.0" y="573.925373134"/>
      <point x="593.641791045" y="389.0"/>
      <point x="672" y="389" type="qcurve" smooth="yes"/>
      <point x="734.686567164" y="389.0"/>
      <point x="802.611940299" y="503.76119403"/>
    </contour>
    <contour>
      <point x="676" y="1499" type="qcurve" smooth="yes"/>
      <point x="937.194029851" y="1499.0"/>
      <point x="1274.0" y="1064.6119403"/>
      <point x="1274" y="737" type="qcurve" smooth="yes"/>
      <point x="1274.0" y="410.134328358"/>
      <point x="937.194029851" y="-25.0"/>
      <point x="676" y="-25" type="qcurve" smooth="yes"/>
      <point x="414.805970149" y="-25.0"/>
      <point x="78.0" y="410.134328358"/>
      <point x="78" y="737" type="qcurve" smooth="yes"/>
      <point x="78.0" y="1064.6119403"/>
      <point x="414.805970149" y="1499.0"/>
    </contour>
    <contour>
      <point x="676" y="25" type="qcurve" smooth="yes"/>
      <point x="915.552238806" y="25.0"/>
      <point x="1217.0" y="430.28358209"/>
      <point x="1217" y="737" type="qcurve" smooth="yes"/>
      <point x="1217.0" y="1044.46268657"/>
      <point x="915.552238806" y="1450.0"/>
      <point x="676" y="1450" type="qcurve" smooth="yes"/>
      <point x="434.208955224" y="1450.0"/>
      <point x="135.0" y="1044.46268657"/>
      <point x="135" y="737" type="qcurve" smooth="yes"/>
      <point x="135.0" y="430.28358209"/>
      <point x="434.208955224" y="25.0"/>
    </contour>
  </outline>
</glyph>
<glyph name="acute" format="1">
  <advance width="798.72"/>
  <unicode hex="00B4"/>
  <outline>
    <contour>
      <point x="436" y="1423" type="line"/>
      <point x="545" y="1423" type="line"/>
      <point x="330" y="1182" type="line"/>
      <point x="285" y="1182" type="line"/>
    </contour>
  </outline>
</glyph>
<glyph name="paragraph" format="1">
  <advance width="880.64"/>
  <unicode hex="00B6"/>
  <outline>
    <contour>
      <point x="737" y="1475" type="line"/>
      <point x="737" y="0" type="line"/>
      <point x="666" y="0" type="line"/>
      <point x="666" y="1413" type="line"/>
      <point x="485" y="1413" type="line"/>
      <point x="485" y="0" type="line"/>
      <point x="414" y="0" type="line"/>
      <point x="414" y="776" type="line"/>
      <point x="274.447761194" y="793.164179104"/>
      <point x="63.0" y="969.328358209"/>
      <point x="63" y="1135" type="qcurve" smooth="yes"/>
      <point x="63.0" y="1304.40298507"/>
      <point x="276.059701493" y="1475.0"/>
      <point x="438" y="1475" type="qcurve" smooth="yes"/>
    </contour>
  </outline>
</glyph>
<glyph name="questiondown" format="1">
  <advance width="688.128"/>
  <unicode hex="00BF"/>
  <outline>
    <contour>
      <point x="584" y="279" type="qcurve"/>
      <point x="643" y="254" type="line"/>
      <point x="609.417910448" y="122.656716418"/>
      <point x="460.925373134" y="-25.0"/>
      <point x="346" y="-25" type="qcurve" smooth="yes"/>
      <point x="225.104477612" y="-25.0"/>
      <point x="80.0" y="153.955223881"/>
      <point x="80" y="295" type="qcurve" smooth="yes"/>
      <point x="80.0" y="415.895522388"/>
      <point x="153.671641791" y="569.074626866"/>
      <point x="238" y="684" type="qcurve" smooth="yes"/>
      <point x="303.671641791" y="772.805970149"/>
      <point x="348.0" y="933.880597015"/>
      <point x="348" y="1110" type="qcurve"/>
      <point x="393" y="1110" type="line"/>
      <point x="394.492537313" y="912.985074627"/>
      <point x="352.358208955" y="728.731343284"/>
      <point x="274" y="625" type="qcurve" smooth="yes"/>
      <point x="209.820895522" y="540.671641791"/>
      <point x="154.0" y="391.805970149"/>
      <point x="154" y="303" type="qcurve" smooth="yes"/>
      <point x="154.0" y="190.313432836"/>
      <point x="260.208955224" y="43.0"/>
      <point x="352" y="43" type="qcurve" smooth="yes"/>
      <point x="439.313432836" y="43.0"/>
      <point x="550.417910448" y="165.567164179"/>
    </contour>
    <contour>
      <point x="371" y="1489" type="qcurve" smooth="yes"/>
      <point x="400.104477612" y="1489.0"/>
      <point x="436.0" y="1452.10447761"/>
      <point x="436" y="1423" type="qcurve" smooth="yes"/>
      <point x="436.0" y="1393.89552239"/>
      <point x="400.104477612" y="1358.0"/>
      <point x="371" y="1358" type="qcurve" smooth="yes"/>
      <point x="341.895522388" y="1358.0"/>
      <point x="305.0" y="1393.89552239"/>
      <point x="305" y="1423" type="qcurve" smooth="yes"/>
      <point x="305.0" y="1452.10447761"/>
      <point x="341.895522388" y="1489.0"/>
    </contour>
  </outline>
</glyph>
<glyph name="AE" format="1">
  <advance width="1454.08"/>
  <unicode hex="00C6"/>
  <outline>
    <contour>
      <point x="1395" y="61" type="line"/>
      <point x="1395" y="0" type="line"/>
      <point x="741" y="0" type="line"/>
      <point x="741" y="418" type="line"/>
      <point x="281" y="418" type="line"/>
      <point x="104" y="0" type="line"/>
      <point x="27" y="0" type="line"/>
      <point x="651" y="1475" type="line"/>
      <point x="1374" y="1475" type="line"/>
      <point x="1374" y="1413" type="line"/>
      <point x="819" y="1413" type="line"/>
      <point x="819" y="805" type="line"/>
      <point x="1288" y="805" type="line"/>
      <point x="1288" y="743" type="line"/>
      <point x="819" y="743" type="line"/>
      <point x="819" y="61" type="line"/>
    </contour>
    <contour>
      <point x="305" y="479" type="line"/>
      <point x="741" y="479" type="line"/>
      <point x="741" y="1413" type="line"/>
      <point x="698" y="1413" type="line"/>
    </contour>
  </outline>
</glyph>
<glyph name="Ccedilla" format="1">
  <advance width="911.36"/>
  <unicode hex="00C7"/>
  <outline>
    <contour>
      <point x="778" y="430" type="qcurve"/>
      <point x="846" y="410" type="line"/>
      <point x="809.432835821" y="223.432835821"/>
      <point x="648.746268657" y="-16.7910447761"/>
      <point x="498" y="-25" type="qcurve"/>
      <point x="461" y="-90" type="line"/>
      <point x="478.910447761" y="-82.5373134328"/>
      <point x="513.358208955" y="-74.0"/>
      <point x="535" y="-74" type="qcurve" smooth="yes"/>
      <point x="585.0" y="-74.0"/>
      <point x="643.0" y="-121.731343284"/>
      <point x="643" y="-168" type="qcurve" smooth="yes"/>
      <point x="643.0" y="-239.641791045"/>
      <point x="474.776119403" y="-309.985074627"/>
      <point x="330" y="-307" type="qcurve"/>
      <point x="330" y="-272" type="line"/>
      <point x="461.343283582" y="-269.014925373"/>
      <point x="571.0" y="-217.044776119"/>
      <point x="571" y="-176" type="qcurve" smooth="yes"/>
      <point x="571.0" y="-152.865671642"/>
      <point x="538.597014925" y="-125.0"/>
      <point x="508" y="-125" type="qcurve" smooth="yes"/>
      <point x="481.880597015" y="-125.0"/>
      <point x="439.402985075" y="-134.552238806"/>
      <point x="420" y="-145" type="qcurve"/>
      <point x="389" y="-125" type="line"/>
      <point x="446" y="-23" type="line"/>
      <point x="278.089552239" y="-5.83582089552"/>
      <point x="92.0" y="365.208955224"/>
      <point x="92" y="657" type="qcurve" smooth="yes"/>
      <point x="92" y="813" type="line" smooth="yes"/>
      <point x="92.0" y="1120.46268657"/>
      <point x="297.149253731" y="1499.0"/>
      <point x="477" y="1499" type="qcurve" smooth="yes"/>
      <point x="624.014925373" y="1499.0"/>
      <point x="797.194029851" y="1285.07462687"/>
      <point x="836" y="1100" type="qcurve"/>
      <point x="766" y="1073" type="line"/>
      <point x="730.925373134" y="1240.91044776"/>
      <point x="596.402985075" y="1438.0"/>
      <point x="477" y="1438" type="qcurve" smooth="yes"/>
      <point x="325.507462687" y="1438.0"/>
      <point x="170.0" y="1081.17910448"/>
      <point x="170" y="817" type="qcurve" smooth="yes"/>
      <point x="170" y="662" type="line" smooth="yes"/>
      <point x="170.0" y="397.074626866"/>
      <point x="328.52238806" y="37.0"/>
      <point x="483" y="37" type="qcurve" smooth="yes"/>
      <point x="603.895522388" y="37.0"/>
      <point x="738.447761194" y="241.940298507"/>
    </contour>
  </outline>
</glyph>
<glyph name="multiply" format="1">
  <advance width="962.56"/>
  <unicode hex="00D7"/>
  <outline>
    <contour>
      <point x="520" y="727" type="line"/>
      <point x="838" y="414" type="line"/>
      <point x="795" y="369" type="line"/>
      <point x="479" y="686" type="line"/>
      <point x="166" y="369" type="line"/>
      <point x="123" y="414" type="line"/>
      <point x="440" y="727" type="line"/>
      <point x="123" y="1040" type="line"/>
      <point x="166" y="1083" type="line"/>
      <point x="479" y="766" type="line"/>
      <point x="795" y="1083" type="line"/>
      <point x="838" y="1040" type="line"/>
    </contour>
  </outline>
</glyph>
<glyph name="Thorn" format="1">
  <advance width="901.12"/>
  <unicode hex="00DE"/>
  <outline>
    <contour>
      <point x="410" y="1171" type="line" smooth="yes"/>
      <point x="610.0" y="1171.0"/>
      <point x="831.0" y="957.014925373"/>
      <point x="831" y="760" type="qcurve" smooth="yes"/>
      <point x="831.0" y="562.985074627"/>
      <point x="609.208955224" y="344.0"/>
      <point x="401" y="344" type="qcurve" smooth="yes"/>
      <point x="225" y="344" type="line"/>
      <point x="225" y="0" type="line"/>
      <point x="147" y="0" type="line"/>
      <point x="147" y="1475" type="line"/>
      <point x="225" y="1475" type="line"/>
      <point x="225" y="1171" type="line"/>
    </contour>
    <contour>
      <point x="428" y="406" type="line" smooth="yes"/>
      <point x="586.955223881" y="406.0"/>
      <point x="756.0" y="581.373134328"/>
      <point x="756" y="756" type="qcurve" smooth="yes"/>
      <point x="756.0" y="925.402985075"/>
      <point x="586.417910448" y="1110.0"/>
      <point x="420" y="1110" type="qcurve" smooth="yes"/>
      <point x="225" y="1110" type="line"/>
      <point x="225" y="406" type="line"/>
    </contour>
  </outline>
</glyph>
<glyph name="germandbls" format="1">
  <advance width="907.264"/>
  <unicode hex="00DF"/>
  <outline>
    <contour>
      <point x="504" y="842" type="line"/>
      <point x="632.358208955" y="805.432835821"/>
      <point x="836.0" y="568.71641791"/>
      <point x="836" y="362" type="qcurve" smooth="yes"/>
      <point x="836.0" y="180.656716418"/>
      <point x="670.432835821" y="-20.0"/>
      <point x="557" y="-20" type="qcurve" smooth="yes"/>
      <point x="468.194029851" y="-20.0"/>
      <point x="360.791044776" y="53.776119403"/>
      <point x="319" y="109" type="qcurve"/>
      <point x="365" y="150" type="line"/>
      <point x="403.059701493" y="99.2537313433"/>
      <point x="487.358208955" y="33.0"/>
      <point x="559" y="33" type="qcurve" smooth="yes"/>
      <point x="638.850746269" y="33.0"/>
      <point x="764.0" y="200.029850746"/>
      <point x="764" y="356" type="qcurve" smooth="yes"/>
      <point x="764.0" y="559.731343284"/>
      <point x="557.567164179" y="806.074626866"/>
      <point x="371" y="821" type="qcurve"/>
      <point x="371" y="870" type="line"/>
      <point x="515.776119403" y="875.223880597"/>
      <point x="653.0" y="1076.14925373"/>
      <point x="653" y="1206" type="qcurve" smooth="yes"/>
      <point x="653.0" y="1325.40298507"/>
      <point x="537.701492537" y="1501.0"/>
      <point x="428" y="1501" type="qcurve" smooth="yes"/>
      <point x="316.805970149" y="1501.0"/>
      <point x="195.0" y="1329.92537313"/>
      <point x="195" y="1165" type="qcurve" smooth="yes"/>
      <point x="195" y="0" type="line"/>
      <point x="123" y="0" type="line"/>
      <point x="123" y="1157" type="line" smooth="yes"/>
      <point x="123.0" y="1349.53731343"/>
      <point x="288.208955224" y="1554.0"/>
      <point x="430" y="1554" type="qcurve" smooth="yes"/>
      <point x="565.820895522" y="1554.0"/>
      <point x="725.0" y="1356.02985075"/>
      <point x="725" y="1212" type="qcurve" smooth="yes"/>
      <point x="725.0" y="1077.67164179"/>
      <point x="598.776119403" y="890.567164179"/>
      <point x="504" y="854" type="qcurve"/>
    </contour>
  </outline>
</glyph>
<glyph name="ae" format="1">
  <advance width="1181.696"/>
  <unicode hex="00E6"/>
  <outline>
    <contour>
      <point x="1112" y="520" type="qcurve" smooth="yes"/>
      <point x="1112" y="516" type="line"/>
      <point x="612" y="516" type="line"/>
      <point x="612" y="469" type="line" smooth="yes"/>
      <point x="612.0" y="269.0"/>
      <point x="744.805970149" y="41.0"/>
      <point x="856" y="41" type="qcurve" smooth="yes"/>
      <point x="918.686567164" y="41.0"/>
      <point x="1020.46268657" y="102.776119403"/>
      <point x="1063" y="158" type="qcurve"/>
      <point x="1104" y="117" type="line"/>
      <point x="1057.73134328" y="57.2985074627"/>
      <point x="933.850746269" y="-20.0"/>
      <point x="854" y="-20" type="qcurve" smooth="yes"/>
      <point x="765.194029851" y="-20.0"/>
      <point x="630.059701493" y="85.2537313433"/>
      <point x="592" y="186" type="qcurve"/>
      <point x="590" y="190" type="line"/>
      <point x="527.313432836" y="83.2835820896"/>
      <point x="381.328358209" y="-16.0"/>
      <point x="297" y="-16" type="qcurve" smooth="yes"/>
      <point x="193.268656716" y="-16.0"/>
      <point x="59.0" y="124.119402985"/>
      <point x="59" y="248" type="qcurve" smooth="yes"/>
      <point x="59.0" y="392.776119403"/>
      <point x="303.71641791" y="606.343283582"/>
      <point x="547" y="625" type="qcurve"/>
      <point x="547" y="791" type="line" smooth="yes"/>
      <point x="547.0" y="899.208955224"/>
      <point x="474.880597015" y="999.0"/>
      <point x="401" y="999" type="qcurve" smooth="yes"/>
      <point x="335.328358209" y="999.0"/>
      <point x="221.671641791" y="948.791044776"/>
      <point x="156" y="907" type="qcurve"/>
      <point x="127" y="963" type="line"/>
      <point x="188.194029851" y="1002.55223881"/>
      <point x="325.194029851" y="1059.0"/>
      <point x="414" y="1059" type="qcurve" smooth="yes"/>
      <point x="505.791044776" y="1059.0"/>
      <point x="589.044776119" y="960.746268657"/>
      <point x="598" y="860" type="qcurve"/>
      <point x="606" y="860" type="line"/>
      <point x="638.089552239" y="957.76119403"/>
      <point x="751.164179104" y="1069.0"/>
      <point x="834" y="1069" type="qcurve" smooth="yes"/>
      <point x="962.358208955" y="1069.0"/>
      <point x="1112.0" y="766.268656716"/>
    </contour>
    <contour>
      <point x="305" y="43" type="qcurve" smooth="yes"/>
      <point x="367.686567164" y="43.0"/>
      <point x="504.313432836" y="141.611940299"/>
      <point x="567" y="264" type="qcurve"/>
      <point x="556.552238806" y="308.776119403"/>
      <point x="547.0" y="410.28358209"/>
      <point x="547" y="467" type="qcurve" smooth="yes"/>
      <point x="547" y="571" type="line"/>
      <point x="323.865671642" y="553.089552239"/>
      <point x="131.0" y="364.686567164"/>
      <point x="131" y="252" type="qcurve" smooth="yes"/>
      <point x="131.0" y="157.223880597"/>
      <point x="227.388059701" y="43.0"/>
    </contour>
    <contour>
      <point x="612" y="573" type="line"/>
      <point x="1040" y="573" type="line"/>
      <point x="1035.52238806" y="753.597014925"/>
      <point x="925.044776119" y="1014.0"/>
      <point x="834" y="1014" type="qcurve" smooth="yes"/>
      <point x="728.029850746" y="1014.0"/>
      <point x="612.0" y="763.343283582"/>
      <point x="612" y="582" type="qcurve" smooth="yes"/>
    </contour>
  </outline>
</glyph>
<glyph name="ccedilla" format="1">
  <advance width="692.224"/>
  <unicode hex="00E7"/>
  <outline>
    <contour>
      <point x="580" y="260" type="qcurve"/>
      <point x="635" y="236" type="line"/>
      <point x="604.402985075" y="128.537313433"/>
      <point x="477.268656716" y="-17.0149253731"/>
      <point x="381" y="-20" type="qcurve"/>
      <point x="342" y="-90" type="line"/>
      <point x="360.656716418" y="-82.5373134328"/>
      <point x="394.358208955" y="-74.0"/>
      <point x="416" y="-74" type="qcurve" smooth="yes"/>
      <point x="466.0" y="-74.0"/>
      <point x="524.0" y="-121.731343284"/>
      <point x="524" y="-168" type="qcurve" smooth="yes"/>
      <point x="524.0" y="-239.641791045"/>
      <point x="356.52238806" y="-309.985074627"/>
      <point x="211" y="-307" type="qcurve"/>
      <point x="211" y="-272" type="line"/>
      <point x="342.343283582" y="-269.014925373"/>
      <point x="453.0" y="-217.044776119"/>
      <point x="453" y="-176" type="qcurve" smooth="yes"/>
      <point x="453.0" y="-152.865671642"/>
      <point x="419.597014925" y="-125.0"/>
      <point x="389" y="-125" type="qcurve" smooth="yes"/>
      <point x="362.880597015" y="-125.0"/>
      <point x="321.149253731" y="-134.552238806"/>
      <point x="301" y="-145" type="qcurve"/>
      <point x="270" y="-125" type="line"/>
      <point x="332" y="-16" type="line"/>
      <point x="214.089552239" y="4.89552238806"/>
      <point x="76.0" y="269.985074627"/>
      <point x="76" y="467" type="qcurve" smooth="yes"/>
      <point x="76" y="578" type="line" smooth="yes"/>
      <point x="76.0" y="789.940298507"/>
      <point x="239.656716418" y="1069.0"/>
      <point x="371" y="1069" type="qcurve" smooth="yes"/>
      <point x="479.208955224" y="1069.0"/>
      <point x="600.402985075" y="916.701492537"/>
      <point x="631" y="807" type="qcurve"/>
      <point x="569" y="784" type="line"/>
      <point x="539.895522388" y="878.776119403"/>
      <point x="450.582089552" y="1010.0"/>
      <point x="367" y="1010" type="qcurve" smooth="yes"/>
      <point x="267.0" y="1010.0"/>
      <point x="147.0" y="763.343283582"/>
      <point x="147" y="582" type="qcurve" smooth="yes"/>
      <point x="147" y="469" type="line" smooth="yes"/>
      <point x="147.0" y="286.910447761"/>
      <point x="272.28358209" y="39.0"/>
      <point x="379" y="39" type="qcurve" smooth="yes"/>
      <point x="449.149253731" y="39.0"/>
      <point x="552.388059701" y="160.746268657"/>
    </contour>
  </outline>
</glyph>
<glyph name="eth" format="1">
  <advance width="774.144"/>
  <unicode hex="00F0"/>
  <outline>
    <contour>
      <point x="694" y="569" type="qcurve" smooth="yes"/>
      <point x="694" y="487" type="line" smooth="yes"/>
      <point x="694.0" y="270.582089552"/>
      <point x="524.791044776" y="-20.0"/>
      <point x="383" y="-20" type="qcurve" smooth="yes"/>
      <point x="241.208955224" y="-20.0"/>
      <point x="76.0" y="270.582089552"/>
      <point x="76" y="487" type="qcurve" smooth="yes"/>
      <point x="76" y="561" type="line" smooth="yes"/>
      <point x="76.0" y="778.164179104"/>
      <point x="244.701492537" y="1069.0"/>
      <point x="385" y="1069" type="qcurve" smooth="yes"/>
      <point x="469.328358209" y="1069.0"/>
      <point x="582.417910448" y="940.805970149"/>
      <point x="616" y="852" type="qcurve"/>
      <point x="625" y="852" type="line"/>
      <point x="609.328358209" y="993.791044776"/>
      <point x="504.626865672" y="1248.02985075"/>
      <point x="430" y="1354" type="qcurve"/>
      <point x="252" y="1208" type="line"/>
      <point x="252" y="1274" type="line"/>
      <point x="401" y="1395" type="line"/>
      <point x="375.626865672" y="1428.58208955"/>
      <point x="320.104477612" y="1492.89552239"/>
      <point x="291" y="1522" type="qcurve"/>
      <point x="342" y="1561" type="line"/>
      <point x="366.626865672" y="1531.89552239"/>
      <point x="420.626865672" y="1468.56716418"/>
      <point x="446" y="1432" type="qcurve"/>
      <point x="606" y="1561" type="line"/>
      <point x="606" y="1495" type="line"/>
      <point x="475" y="1391" type="line"/>
      <point x="560.820895522" y="1262.64179104"/>
      <point x="694.0" y="870.492537313"/>
    </contour>
    <contour>
      <point x="387" y="35" type="qcurve" smooth="yes"/>
      <point x="493.71641791" y="35.0"/>
      <point x="623.0" y="287.925373134"/>
      <point x="623" y="473" type="qcurve" smooth="yes"/>
      <point x="623" y="575" type="line" smooth="yes"/>
      <point x="623.0" y="760.074626866"/>
      <point x="489.71641791" y="1014.0"/>
      <point x="383" y="1014" type="qcurve" smooth="yes"/>
      <point x="276.28358209" y="1014.0"/>
      <point x="147.0" y="760.074626866"/>
      <point x="147" y="575" type="qcurve" smooth="yes"/>
      <point x="147" y="473" type="line" smooth="yes"/>
      <point x="147.0" y="287.925373134"/>
      <point x="280.28358209" y="35.0"/>
    </contour>
  </outline>
</glyph>
<glyph name="divide" format="1">
  <advance width="962.56"/>
  <unicode hex="00F7"/>
  <outline>
    <contour>
      <point x="481" y="477" type="qcurve" smooth="yes"/>
      <point x="511.597014925" y="477.0"/>
      <point x="549.0" y="439.104477612"/>
      <point x="549" y="410" type="qcurve" smooth="yes"/>
      <point x="549.0" y="380.895522388"/>
      <point x="511.597014925" y="344.0"/>
      <point x="481" y="344" type="qcurve" smooth="yes"/>
      <point x="451.895522388" y="344.0"/>
      <point x="416.0" y="380.895522388"/>
      <point x="416" y="410" type="qcurve" smooth="yes"/>
      <point x="416.0" y="439.104477612"/>
      <point x="451.895522388" y="477.0"/>
    </contour>
    <contour>
      <point x="481" y="1110" type="qcurve" smooth="yes"/>
      <point x="511.597014925" y="1110.0"/>
      <point x="549.0" y="1073.10447761"/>
      <point x="549" y="1044" type="qcurve" smooth="yes"/>
      <point x="549.0" y="1015.64179104"/>
      <point x="511.597014925" y="979.0"/>
      <point x="481" y="979" type="qcurve" smooth="yes"/>
      <point x="451.895522388" y="979.0"/>
      <point x="416.0" y="1015.64179104"/>
      <point x="416" y="1044" type="qcurve" smooth="yes"/>
      <point x="416.0" y="1073.10447761"/>
      <point x="451.895522388" y="1110.0"/>
    </contour>
    <contour>
      <point x="885" y="762" type="line"/>
      <point x="885" y="692" type="line"/>
      <point x="78" y="692" type="line"/>
      <point x="78" y="762" type="line"/>
    </contour>
  </outline>
</glyph>
<glyph name="dotlessi" format="1">
  <advance width="346.112"/>
  <unicode hex="0131"/>
  <outline>
    <contour>
      <point x="209" y="1049" type="line"/>
      <point x="209" y="0" type="line"/>
      <point x="137" y="0" type="line"/>
      <point x="137" y="1049" type="line"/>
    </contour>
  </outline>
</glyph>
<glyph name="OE" format="1">
  <advance width="1454.08"/>
  <unicode hex="0152"/>
  <outline>
    <contour>
      <point x="1395" y="61" type="line"/>
      <point x="1395" y="0" type="line"/>
      <point x="592" y="0" type="line" smooth="yes"/>
      <point x="347.223880597" y="0.0"/>
      <point x="92.0" y="353.776119403"/>
      <point x="92" y="659" type="qcurve" smooth="yes"/>
      <point x="92" y="811" type="line" smooth="yes"/>
      <point x="92.0" y="1121.44776119"/>
      <point x="355.223880597" y="1475.0"/>
      <point x="600" y="1475" type="qcurve" smooth="yes"/>
      <point x="1374" y="1475" type="line"/>
      <point x="1374" y="1413" type="line"/>
      <point x="819" y="1413" type="line"/>
      <point x="819" y="805" type="line"/>
      <point x="1288" y="805" type="line"/>
      <point x="1288" y="743" type="line"/>
      <point x="819" y="743" type="line"/>
      <point x="819" y="61" type="line"/>
    </contour>
    <contour>
      <point x="596" y="61" type="qcurve" smooth="yes"/>
      <point x="741" y="61" type="line"/>
      <point x="741" y="1413" type="line"/>
      <point x="588" y="1413" type="line" smooth="yes"/>
      <point x="390.985074627" y="1413.0"/>
      <point x="170.0" y="1096.85074627"/>
      <point x="170" y="817" type="qcurve" smooth="yes"/>
      <point x="170" y="662" type="line" smooth="yes"/>
      <point x="170.0" y="379.164179104"/>
      <point x="389.28358209" y="61.0"/>
    </contour>
  </outline>
</glyph>
<glyph name="oe" format="1">
  <advance width="1261.568"/>
  <unicode hex="0153"/>
  <outline>
    <contour>
      <point x="1192" y="520" type="qcurve" smooth="yes"/>
      <point x="1192" y="516" type="line"/>
      <point x="688" y="516" type="line"/>
      <point x="688" y="469" type="line" smooth="yes"/>
      <point x="688.0" y="269.0"/>
      <point x="824.059701493" y="41.0"/>
      <point x="936" y="41" type="qcurve" smooth="yes"/>
      <point x="998.686567164" y="41.0"/>
      <point x="1099.71641791" y="102.776119403"/>
      <point x="1143" y="158" type="qcurve"/>
      <point x="1184" y="117" type="line"/>
      <point x="1137.73134328" y="57.2985074627"/>
      <point x="1013.10447761" y="-20.0"/>
      <point x="934" y="-20" type="qcurve" smooth="yes"/>
      <point x="831.76119403" y="-20.0"/>
      <point x="692.358208955" y="135.194029851"/>
      <point x="664" y="274" type="qcurve"/>
      <point x="649" y="274" type="line"/>
      <point x="618.402985075" y="144.149253731"/>
      <point x="485.23880597" y="-20.0"/>
      <point x="383" y="-20" type="qcurve" smooth="yes"/>
      <point x="241.208955224" y="-20.0"/>
      <point x="76.0" y="270.582089552"/>
      <point x="76" y="487" type="qcurve" smooth="yes"/>
      <point x="76" y="561" type="line" smooth="yes"/>
      <point x="76.0" y="778.164179104"/>
      <point x="245.208955224" y="1069.0"/>
      <point x="387" y="1069" type="qcurve" smooth="yes"/>
      <point x="489.23880597" y="1069.0"/>
      <point x="621.895522388" y="901.343283582"/>
      <point x="651" y="770" type="qcurve"/>
      <point x="664" y="770" type="line"/>
      <point x="690.865671642" y="902.835820896"/>
      <point x="818.223880597" y="1069.0"/>
      <point x="913" y="1069" type="qcurve" smooth="yes"/>
      <point x="1041.35820896" y="1069.0"/>
      <point x="1192.0" y="766.268656716"/>
    </contour>
    <contour>
      <point x="387" y="35" type="qcurve" smooth="yes"/>
      <point x="493.71641791" y="35.0"/>
      <point x="627.0" y="287.925373134"/>
      <point x="627" y="473" type="qcurve" smooth="yes"/>
      <point x="627" y="575" type="line" smooth="yes"/>
      <point x="627.0" y="760.074626866"/>
      <point x="489.71641791" y="1014.0"/>
      <point x="383" y="1014" type="qcurve" smooth="yes"/>
      <point x="276.28358209" y="1014.0"/>
      <point x="147.0" y="760.074626866"/>
      <point x="147" y="575" type="qcurve" smooth="yes"/>
      <point x="147" y="473" type="line" smooth="yes"/>
      <point x="147.0" y="287.925373134"/>
      <point x="280.28358209" y="35.0"/>
    </contour>
    <contour>
      <point x="688" y="573" type="line"/>
      <point x="1120" y="573" type="line"/>
      <point x="1115.52238806" y="753.597014925"/>
      <point x="1004.79104478" y="1014.0"/>
      <point x="913" y="1014" type="qcurve" smooth="yes"/>
      <point x="807.776119403" y="1014.0"/>
      <point x="688.0" y="763.343283582"/>
      <point x="688" y="582" type="qcurve" smooth="yes"/>
    </contour>
  </outline>
</glyph>
<glyph name="circumflex" format="1">
  <advance width="798.72"/>
  <unicode hex="02C6"/>
  <outline>
    <contour>
      <point x="436" y="1421" type="line"/>
      <point x="618" y="1171" type="line"/>
      <point x="573" y="1171" type="line"/>
      <point x="397" y="1354" type="line"/>
      <point x="223" y="1171" type="line"/>
      <point x="180" y="1171" type="line"/>
      <point x="365" y="1421" type="line"/>
    </contour>
  </outline>
</glyph>
<glyph name="caron" format="1">
  <advance width="798.72"/>
  <unicode hex="02C7"/>
  <outline>
    <contour>
      <point x="578" y="1432" type="line"/>
      <point x="618" y="1432" type="line"/>
      <point x="436" y="1182" type="line"/>
      <point x="365" y="1182" type="line"/>
      <point x="180" y="1432" type="line"/>
      <point x="225" y="1432" type="line"/>
      <point x="401" y="1249" type="line"/>
    </contour>
  </outline>
</glyph>
<glyph name="breve" format="1">
  <advance width="798.72"/>
  <unicode hex="02D8"/>
  <outline>
    <contour>
      <point x="565" y="1432" type="qcurve"/>
      <point x="610" y="1432" type="line"/>
      <point x="604.029850746" y="1312.59701493"/>
      <point x="493.776119403" y="1176.0"/>
      <point x="399" y="1176" type="qcurve" smooth="yes"/>
      <point x="305.71641791" y="1176.0"/>
      <point x="194.71641791" y="1312.59701493"/>
      <point x="188" y="1432" type="qcurve"/>
      <point x="236" y="1432" type="line"/>
      <point x="246.447761194" y="1338.71641791"/>
      <point x="331.835820896" y="1251.0"/>
      <point x="399" y="1251" type="qcurve" smooth="yes"/>
      <point x="466.164179104" y="1251.0"/>
      <point x="553.059701493" y="1338.71641791"/>
    </contour>
  </outline>
</glyph>
<glyph name="dotaccent" format="1">
  <advance width="798.72"/>
  <unicode hex="02D9"/>
  <outline>
    <contour>
      <point x="455" y="1311" type="line"/>
      <point x="455" y="1182" type="line"/>
      <point x="344" y="1182" type="line"/>
      <point x="344" y="1311" type="line"/>
    </contour>
  </outline>
</glyph>
<glyph name="ring" format="1">
  <advance width="798.72"/>
  <unicode hex="02DA"/>
  <outline>
    <contour>
      <point x="399" y="1434" type="qcurve" smooth="yes"/>
      <point x="454.223880597" y="1434.0"/>
      <point x="532.0" y="1355.2238806"/>
      <point x="532" y="1300" type="qcurve" smooth="yes"/>
      <point x="532.0" y="1245.52238806"/>
      <point x="454.223880597" y="1167.0"/>
      <point x="399" y="1167" type="qcurve" smooth="yes"/>
      <point x="344.52238806" y="1167.0"/>
      <point x="266.0" y="1245.52238806"/>
      <point x="266" y="1300" type="qcurve" smooth="yes"/>
      <point x="266.0" y="1355.2238806"/>
      <point x="344.52238806" y="1434.0"/>
    </contour>
    <contour>
      <point x="399" y="1206" type="qcurve" smooth="yes"/>
      <point x="437.805970149" y="1206.0"/>
      <point x="487.0" y="1264.19402985"/>
      <point x="487" y="1303" type="qcurve" smooth="yes"/>
      <point x="487.0" y="1341.05970149"/>
      <point x="437.805970149" y="1395.0"/>
      <point x="399" y="1395" type="qcurve" smooth="yes"/>
      <point x="360.940298507" y="1395.0"/>
      <point x="311.0" y="1341.05970149"/>
      <point x="311" y="1303" type="qcurve" smooth="yes"/>
      <point x="311.0" y="1264.19402985"/>
      <point x="360.940298507" y="1206.0"/>
    </contour>
  </outline>
</glyph>
<glyph name="hungarumlaut" format="1">
  <advance width="798.72"/>
  <unicode hex="02DD"/>
  <outline>
    <contour>
      <point x="295" y="1423" type="line"/>
      <point x="403" y="1423" type="line"/>
      <point x="188" y="1182" type="line"/>
      <point x="143" y="1182" type="line"/>
    </contour>
    <contour>
      <point x="555" y="1423" type="line"/>
      <point x="664" y="1423" type="line"/>
      <point x="451" y="1182" type="line"/>
      <point x="403" y="1182" type="line"/>
    </contour>
  </outline>
</glyph>
<glyph name="endash" format="1">
  <advance width="802.816"/>
  <unicode hex="2013"/>
  <outline>
    <contour>
      <point x="739" y="602" type="line"/>
      <point x="739" y="537" type="line"/>
      <point x="63" y="537" type="line"/>
      <point x="63" y="602" type="line"/>
    </contour>
  </outline>
</glyph>
<glyph name="quoteleft" format="1">
  <advance width="266.24"/>
  <unicode hex="2018"/>
  <unicode hex="02BB"/>
  <outline>
    <contour>
      <point x="145" y="1475" type="line"/>
      <point x="213" y="1100" type="line"/>
      <point x="178" y="1100" type="line"/>
      <point x="59" y="1475" type="line"/>
    </contour>
  </outline>
</glyph>
<glyph name="quoteright" format="1">
  <advance width="286.72"/>
  <unicode hex="2019"/>
  <unicode hex="02BC"/>
  <outline>
    <contour>
      <point x="141" y="1475" type="line"/>
      <point x="227" y="1475" type="line"/>
      <point x="109" y="1100" type="line"/>
      <point x="74" y="1100" type="line"/>
    </contour>
  </outline>
</glyph>
<glyph name="quotedblright" format="1">
  <advance width="512.0"/>
  <unicode hex="201D"/>
  <outline>
    <contour>
      <point x="141" y="1475" type="line"/>
      <point x="227" y="1475" type="line"/>
      <point x="109" y="1100" type="line"/>
      <point x="74" y="1100" type="line"/>
    </contour>
    <contour>
      <point x="367" y="1475" type="line"/>
      <point x="453" y="1475" type="line"/>
      <point x="334" y="1100" type="line"/>
      <point x="299" y="1100" type="line"/>
    </contour>
  </outline>
</glyph>
<glyph name="daggerdbl" format="1">
  <advance width="720.896"/>
  <unicode hex="2021"/>
  <outline>
    <contour>
      <point x="639" y="457" type="line"/>
      <point x="639" y="385" type="line"/>
      <point x="379" y="403" type="line"/>
      <point x="401" y="0" type="line"/>
      <point x="315" y="0" type="line"/>
      <point x="338" y="403" type="line"/>
      <point x="78" y="385" type="line"/>
      <point x="78" y="457" type="line"/>
      <point x="338" y="440" type="line"/>
      <point x="315" y="737" type="line"/>
      <point x="338" y="1034" type="line"/>
      <point x="78" y="1018" type="line"/>
      <point x="78" y="1090" type="line"/>
      <point x="338" y="1071" type="line"/>
      <point x="315" y="1475" type="line"/>
      <point x="401" y="1475" type="line"/>
      <point x="379" y="1071" type="line"/>
      <point x="639" y="1090" type="line"/>
      <point x="639" y="1018" type="line"/>
      <point x="379" y="1034" type="line"/>
      <point x="401" y="737" type="line"/>
      <point x="379" y="440" type="line"/>
    </contour>
  </outline>
</glyph>
<glyph name="ellipsis" format="1">
  <advance width="921.6"/>
  <unicode hex="2026"/>
  <outline>
    <contour>
      <point x="143" y="117" type="qcurve" smooth="yes"/>
      <point x="172.104477612" y="117.0"/>
      <point x="209.0" y="80.1044776119"/>
      <point x="209" y="51" type="qcurve" smooth="yes"/>
      <point x="209.0" y="21.8955223881"/>
      <point x="172.104477612" y="-14.0"/>
      <point x="143" y="-14" type="qcurve" smooth="yes"/>
      <point x="113.895522388" y="-14.0"/>
      <point x="78.0" y="21.8955223881"/>
      <point x="78" y="51" type="qcurve" smooth="yes"/>
      <point x="78.0" y="80.1044776119"/>
      <point x="113.895522388" y="117.0"/>
    </contour>
    <contour>
      <point x="461" y="117" type="qcurve" smooth="yes"/>
      <point x="490.104477612" y="117.0"/>
      <point x="526.0" y="80.1044776119"/>
      <point x="526" y="51" type="qcurve" smooth="yes"/>
      <point x="526.0" y="21.8955223881"/>
      <point x="490.104477612" y="-14.0"/>
      <point x="461" y="-14" type="qcurve" smooth="yes"/>
      <point x="431.895522388" y="-14.0"/>
      <point x="395.0" y="21.8955223881"/>
      <point x="395" y="51" type="qcurve" smooth="yes"/>
      <point x="395.0" y="80.1044776119"/>
      <point x="431.895522388" y="117.0"/>
    </contour>
    <contour>
      <point x="778" y="117" type="qcurve" smooth="yes"/>
      <point x="807.104477612" y="117.0"/>
      <point x="844.0" y="80.1044776119"/>
      <point x="844" y="51" type="qcurve" smooth="yes"/>
      <point x="844.0" y="21.8955223881"/>
      <point x="807.104477612" y="-14.0"/>
      <point x="778" y="-14" type="qcurve" smooth="yes"/>
      <point x="748.895522388" y="-14.0"/>
      <point x="713.0" y="21.8955223881"/>
      <point x="713" y="51" type="qcurve" smooth="yes"/>
      <point x="713.0" y="80.1044776119"/>
      <point x="748.895522388" y="117.0"/>
    </contour>
  </outline>
</glyph>
<glyph name="guilsinglright" format="1">
  <advance width="389.12"/>
  <unicode hex="203A"/>
  <outline>
    <contour>
      <point x="119" y="885" type="line"/>
      <point x="369" y="524" type="line"/>
      <point x="119" y="164" type="line"/>
      <point x="63" y="164" type="line"/>
      <point x="272" y="524" type="line"/>
      <point x="63" y="885" type="line"/>
    </contour>
  </outline>
</glyph>
<glyph name="uni2117" format="1">
  <advance width="1349.632"/>
  <unicode hex="2117"/>
  <outline>
    <contour>
      <point x="676" y="1499" type="qcurve" smooth="yes"/>
      <point x="937.194029851" y="1499.0"/>
      <point x="1274.0" y="1064.6119403"/>
      <point x="1274" y="737" type="qcurve" smooth="yes"/>
      <point x="1274.0" y="410.134328358"/>
      <point x="937.194029851" y="-25.0"/>
      <point x="676" y="-25" type="qcurve" smooth="yes"/>
      <point x="414.805970149" y="-25.0"/>
      <point x="78.0" y="410.134328358"/>
      <point x="78" y="737" type="qcurve" smooth="yes"/>
      <point x="78.0" y="1064.6119403"/>
      <point x="414.805970149" y="1499.0"/>
    </contour>
    <contour>
      <point x="676" y="25" type="qcurve" smooth="yes"/>
      <point x="915.552238806" y="25.0"/>
      <point x="1217.0" y="430.28358209"/>
      <point x="1217" y="737" type="qcurve" smooth="yes"/>
      <point x="1217.0" y="1044.46268657"/>
      <point x="915.552238806" y="1450.0"/>
      <point x="676" y="1450" type="qcurve" smooth="yes"/>
      <point x="434.208955224" y="1450.0"/>
      <point x="135.0" y="1044.46268657"/>
      <point x="135" y="737" type="qcurve" smooth="yes"/>
      <point x="135.0" y="430.28358209"/>
      <point x="434.208955224" y="25.0"/>
    </contour>
    <contour>
      <point x="684" y="1151" type="line" smooth="yes"/>
      <point x="801.910447761" y="1151.0"/>
      <point x="930.0" y="1023.92537313"/>
      <point x="930" y="909" type="qcurve" smooth="yes"/>
      <point x="930.0" y="794.820895522"/>
      <point x="802.388059701" y="668.0"/>
      <point x="680" y="668" type="qcurve" smooth="yes"/>
      <point x="592" y="668" type="line"/>
      <point x="592" y="330" type="line"/>
      <point x="522" y="330" type="line"/>
      <point x="522" y="1151" type="line"/>
    </contour>
    <contour>
      <point x="690" y="729" type="line" smooth="yes"/>
      <point x="771.343283582" y="729.0"/>
      <point x="856.0" y="820.432835821"/>
      <point x="856" y="907" type="qcurve" smooth="yes"/>
      <point x="856.0" y="992.820895522"/>
      <point x="770.328358209" y="1087.0"/>
      <point x="686" y="1087" type="qcurve" smooth="yes"/>
      <point x="592" y="1087" type="line"/>
      <point x="592" y="729" type="line"/>
    </contour>
  </outline>
</glyph>
<glyph name="radical" format="1">
  <advance width="884.736"/>
  <unicode hex="221A"/>
  <outline>
    <contour>
      <point x="750" y="1475" type="line"/>
      <point x="827" y="1475" type="line"/>
      <point x="395" y="-6" type="line"/>
      <point x="324" y="-6" type="line"/>
      <point x="74" y="696" type="line"/>
      <point x="154" y="696" type="line"/>
      <point x="358" y="94" type="line"/>
    </contour>
  </outline>
</glyph>
<glyph name="apple" format="1">
  <advance width="1024.0"/>
  <unicode hex="F8FF"/>
  <outline>
    <contour>
      <point x="543" y="430" type="line"/>
      <point x="930" y="328" type="line"/>
      <point x="903" y="250" type="line"/>
      <point x="526" y="406" type="line"/>
      <point x="555" y="0" type="line"/>
      <point x="469" y="0" type="line"/>
      <point x="498" y="406" type="line"/>
      <point x="121" y="250" type="line"/>
      <point x="94" y="328" type="line"/>
      <point x="481" y="430" type="line"/>
      <point x="223" y="733" type="line"/>
      <point x="223" y="741" type="line"/>
      <point x="481" y="1044" type="line"/>
      <point x="94" y="1147" type="line"/>
      <point x="121" y="1225" type="line"/>
      <point x="498" y="1069" type="line"/>
      <point x="469" y="1475" type="line"/>
      <point x="555" y="1475" type="line"/>
      <point x="526" y="1069" type="line"/>
      <point x="903" y="1225" type="line"/>
      <point x="930" y="1147" type="line"/>
      <point x="543" y="1044" type="line"/>
      <point x="801" y="741" type="line"/>
      <point x="801" y="733" type="line"/>
    </contour>
    <contour>
      <point x="512" y="444" type="line"/>
      <point x="713" y="737" type="line"/>
      <point x="512" y="1030" type="line"/>
      <point x="311" y="737" type="line"/>
    </contour>
  </outline>
</glyph>
<glyph name="I.salt" format="1">
  <advance width="401.408"/>
  <outline>
    <contour>
      <point x="240" y="1475" type="line"/>
      <point x="240" y="0" type="line"/>
      <point x="162" y="0" type="line"/>
      <point x="162" y="1475" type="line"/>
    </contour>
  </outline>
</glyph>
<glyph name="endash.uc" format="1">
  <advance width="962.56"/>
  <outline>
    <contour>
      <point x="885" y="762" type="line"/>
      <point x="885" y="692" type="line"/>
      <point x="78" y="692" type="line"/>
      <point x="78" y="762" type="line"/>
    </contour>
  </outline>
</glyph>
<glyph name="registered" format="1">
  <advance width="684.032"/>
  <outline>
    <contour>
      <point x="383" y="1184" type="qcurve"/>
      <point x="481" y="1044" type="line"/>
      <point x="422" y="1044" type="line"/>
      <point x="326" y="1184" type="line"/>
      <point x="291" y="1184" type="line"/>
      <point x="291" y="1044" type="line"/>
      <point x="246" y="1044" type="line"/>
      <point x="246" y="1368" type="line"/>
      <point x="346" y="1368" type="line" smooth="yes"/>
      <point x="396.746268657" y="1368.0"/>
      <point x="459.0" y="1321.52238806"/>
      <point x="459" y="1276" type="qcurve" smooth="yes"/>
      <point x="459.0" y="1237.94029851"/>
      <point x="416.582089552" y="1191.46268657"/>
    </contour>
    <contour>
      <point x="342" y="1489" type="qcurve" smooth="yes"/>
      <point x="462.895522388" y="1489.0"/>
      <point x="629.0" y="1322.3880597"/>
      <point x="629" y="1200" type="qcurve" smooth="yes"/>
      <point x="629.0" y="1079.10447761"/>
      <point x="464.388059701" y="913.0"/>
      <point x="342" y="913" type="qcurve" smooth="yes"/>
      <point x="221.104477612" y="913.0"/>
      <point x="55.0" y="1079.10447761"/>
      <point x="55" y="1200" type="qcurve" smooth="yes"/>
      <point x="55.0" y="1322.3880597"/>
      <point x="219.611940299" y="1489.0"/>
    </contour>
    <contour>
      <point x="342" y="946" type="qcurve" smooth="yes"/>
      <point x="450.208955224" y="946.0"/>
      <point x="594.0" y="1093.28358209"/>
      <point x="594" y="1200" type="qcurve" smooth="yes"/>
      <point x="594.0" y="1308.95522388"/>
      <point x="448.71641791" y="1456.0"/>
      <point x="342" y="1456" type="qcurve" smooth="yes"/>
      <point x="233.791044776" y="1456.0"/>
      <point x="90.0" y="1308.95522388"/>
      <point x="90" y="1200" type="qcurve" smooth="yes"/>
      <point x="90.0" y="1093.28358209"/>
      <point x="235.28358209" y="946.0"/>
    </contour>
    <contour>
      <point x="346" y="1221" type="line" smooth="yes"/>
      <point x="376.597014925" y="1221.0"/>
      <point x="412.0" y="1249.88059701"/>
      <point x="412" y="1276" type="qcurve" smooth="yes"/>
      <point x="412.0" y="1300.62686567"/>
      <point x="376.089552239" y="1325.0"/>
      <point x="344" y="1325" type="qcurve" smooth="yes"/>
      <point x="291" y="1325" type="line"/>
      <point x="291" y="1221" type="line"/>
    </contour>
  </outline>
</glyph>
